<?xml version="1.0" encoding="UTF-8"?>
<svg version="1.1" xmlns="http://www.w3.org/2000/svg" width="225" height="225">
<path d="M0 0 C6 0 6 0 8.44921875 2.265625 C9.18785156 3.25046875 9.92648438 4.2353125 10.6875 5.25 C11.43386719 6.22453125 12.18023437 7.1990625 12.94921875 8.203125 C13.96435547 9.58757812 13.96435547 9.58757812 15 11 C15.99 12.32 16.98 13.64 18 15 C18.33 10.05 18.66 5.1 19 0 C21.31 0 23.62 0 26 0 C26 9.9 26 19.8 26 30 C20 30 20 30 17.55078125 27.734375 C16.81214844 26.74953125 16.07351562 25.7646875 15.3125 24.75 C14.56613281 23.77546875 13.81976563 22.8009375 13.05078125 21.796875 C12.37402344 20.87390625 11.69726562 19.9509375 11 19 C10.01 17.68 9.02 16.36 8 15 C7.67 19.95 7.34 24.9 7 30 C4.69 30 2.38 30 0 30 C0 20.1 0 10.2 0 0 Z " fill="#030404" transform="translate(92,89)"/>
<path d="M0 0 C0.91644287 0.00523682 1.83288574 0.01047363 2.77709961 0.01586914 C3.76645508 0.0190918 4.75581055 0.02231445 5.77514648 0.02563477 C6.81606445 0.03401367 7.85698242 0.04239258 8.92944336 0.05102539 C10.49662109 0.05779297 10.49662109 0.05779297 12.09545898 0.06469727 C14.68600996 0.07652627 17.27644895 0.0930085 19.86694336 0.11352539 C19.86694336 2.42352539 19.86694336 4.73352539 19.86694336 7.11352539 C14.91694336 7.11352539 9.96694336 7.11352539 4.86694336 7.11352539 C4.86694336 8.76352539 4.86694336 10.41352539 4.86694336 12.11352539 C9.15694336 12.11352539 13.44694336 12.11352539 17.86694336 12.11352539 C17.86694336 14.09352539 17.86694336 16.07352539 17.86694336 18.11352539 C13.57694336 18.11352539 9.28694336 18.11352539 4.86694336 18.11352539 C4.86694336 20.09352539 4.86694336 22.07352539 4.86694336 24.11352539 C6.47375977 24.09612305 6.47375977 24.09612305 8.11303711 24.07836914 C9.51017079 24.0689924 10.90730635 24.05989208 12.30444336 24.05102539 C13.01149414 24.04264648 13.71854492 24.03426758 14.44702148 24.02563477 C16.25387895 24.01698951 18.06081939 24.06132528 19.86694336 24.11352539 C20.86694336 25.11352539 20.86694336 25.11352539 20.86694336 30.11352539 C12.94694336 30.11352539 5.02694336 30.11352539 -3.13305664 30.11352539 C-3.15597058 26.00174612 -3.17589615 21.89012881 -3.18798828 17.77832031 C-3.19302744 16.37857311 -3.19985881 14.97883119 -3.20849609 13.57910156 C-3.22057984 11.57106762 -3.22575471 9.56299582 -3.23071289 7.55493164 C-3.23594971 6.34522705 -3.24118652 5.13552246 -3.24658203 3.88916016 C-3.09424828 0.16468186 -3.09424828 0.16468186 0 0 Z " fill="#020304" transform="translate(178.133056640625,88.886474609375)"/>
<path d="M0 0 C1.03253906 0.01353516 1.03253906 0.01353516 2.0859375 0.02734375 C3.76577838 0.05067487 5.44543746 0.08653674 7.125 0.125 C7.16754356 2.12454746 7.16580783 4.12541636 7.125 6.125 C6.125 7.125 6.125 7.125 3.25390625 7.2578125 C2.07699219 7.25523438 0.90007813 7.25265625 -0.3125 7.25 C-2.07400391 7.25386719 -2.07400391 7.25386719 -3.87109375 7.2578125 C-6.875 7.125 -6.875 7.125 -8.875 6.125 C-8.875 8.105 -8.875 10.085 -8.875 12.125 C-4.255 12.125 0.365 12.125 5.125 12.125 C5.125 14.105 5.125 16.085 5.125 18.125 C0.505 18.125 -4.115 18.125 -8.875 18.125 C-8.875 20.105 -8.875 22.085 -8.875 24.125 C-3.595 24.125 1.685 24.125 7.125 24.125 C7.125 26.105 7.125 28.085 7.125 30.125 C-0.465 30.125 -8.055 30.125 -15.875 30.125 C-15.92880781 26.02065949 -15.96858213 21.91702007 -16 17.8125 C-16.01675781 16.64525391 -16.03351562 15.47800781 -16.05078125 14.27539062 C-16.05722656 13.15712891 -16.06367188 12.03886719 -16.0703125 10.88671875 C-16.08078613 9.85506592 -16.09125977 8.82341309 -16.10205078 7.76049805 C-15.875 5.125 -15.875 5.125 -13.875 2.125 C-9.26945908 0.06138968 -4.9642468 -0.12506823 0 0 Z " fill="#030303" transform="translate(42.875,88.875)"/>
<path d="M0 0 C2.31 0 4.62 0 7 0 C7.33 7.59 7.66 15.18 8 23 C10.64 23 13.28 23 16 23 C17.67128932 20.05618512 18.27731759 17.82616606 18.4140625 14.453125 C18.45273438 13.60878906 18.49140625 12.76445313 18.53125 11.89453125 C18.5621875 11.02183594 18.593125 10.14914063 18.625 9.25 C18.66367188 8.36183594 18.70234375 7.47367187 18.7421875 6.55859375 C18.83620873 4.3726002 18.92186143 2.18660938 19 0 C21.31 0 23.62 0 26 0 C26.08767555 3.37483413 26.14061628 6.74937215 26.1875 10.125 C26.21263672 11.07632813 26.23777344 12.02765625 26.26367188 13.0078125 C26.3203279 18.44679044 26.10512895 22.31599192 23 27 C19.75293595 29.94265179 17.08647349 30.918002 12.6875 31.25 C7.93674617 30.92791499 4.64839938 29.75134829 1.34643555 26.24316406 C-0.34780162 23.42056186 -0.34525219 21.63580371 -0.29296875 18.359375 C-0.28330078 17.28945312 -0.27363281 16.21953125 -0.26367188 15.1171875 C-0.23853516 14.00601563 -0.21339844 12.89484375 -0.1875 11.75 C-0.17396484 10.62335938 -0.16042969 9.49671875 -0.14648438 8.3359375 C-0.11115645 5.55680736 -0.0618252 2.77864637 0 0 Z " fill="#030405" transform="translate(58,89)"/>
<path d="M0 0 C1.6328125 1.10546875 1.6328125 1.10546875 3.9453125 3.10546875 C1.9653125 6.07546875 1.9653125 6.07546875 -0.0546875 9.10546875 C-0.64636719 8.85410156 -1.23804688 8.60273437 -1.84765625 8.34375 C-6.89714226 6.24360796 -6.89714226 6.24360796 -12.0546875 7.29296875 C-14.81536686 9.79483442 -15.01761036 10.70503563 -15.3671875 14.48046875 C-15.34912672 18.08735476 -15.34912672 18.08735476 -13.4296875 20.54296875 C-10.34105354 22.57496478 -8.70336415 22.54330995 -5.0546875 22.10546875 C-1.77904387 21.18131934 -1.77904387 21.18131934 0.9453125 20.10546875 C1.9353125 21.09546875 2.9253125 22.08546875 3.9453125 23.10546875 C2.91918166 26.08124819 1.97900159 27.08300936 -0.6796875 28.85546875 C-5.92859705 30.79950932 -9.96313188 30.84366485 -15.2421875 28.98046875 C-19.31933157 26.26237271 -22.28547944 23.69623699 -23.69140625 18.9609375 C-24.54346343 13.58289917 -23.82300194 9.90388044 -21.0546875 5.10546875 C-15.73036023 -1.01750761 -7.82285077 -3.40576583 0 0 Z " fill="#030404" transform="translate(165.0546875,89.89453125)"/>
<path d="M0 0 C2.31 0 4.62 0 7 0 C7 9.9 7 19.8 7 30 C4.69 30 2.38 30 0 30 C0 20.1 0 10.2 0 0 Z " fill="#020303" transform="translate(127,89)"/>
<path d="M0 0 C2.97 0 5.94 0 9 0 C9 0.66 9 1.32 9 2 C7.02 2 5.04 2 3 2 C3 2.66 3 3.32 3 4 C4.65 4 6.3 4 8 4 C8 4.99 8 5.98 8 7 C6.35 7 4.7 7 3 7 C3 7.66 3 8.32 3 9 C4.98 9 6.96 9 9 9 C8.67 9.99 8.34 10.98 8 12 C5.36 12 2.72 12 0 12 C0 8.04 0 4.08 0 0 Z " fill="#010101" transform="translate(57,125)"/>
<path d="M0 0 C4 2 4 2 6 4 C6.33 2.68 6.66 1.36 7 0 C7.99 0 8.98 0 10 0 C10 3.63 10 7.26 10 11 C9.01 11 8.02 11 7 11 C4.8125 8.5 4.8125 8.5 3 6 C2.67 7.98 2.34 9.96 2 12 C1.34 12 0.68 12 0 12 C0 8.04 0 4.08 0 0 Z " fill="#010101" transform="translate(41,125)"/>
<path d="M0 0 C1.9375 1.0625 1.9375 1.0625 3 3 C2.875 6.5625 2.875 6.5625 2 10 C-1 12 -1 12 -4.0625 11.8125 C-7 11 -7 11 -9 8 C-9.35384949 5.16920408 -9.3920891 3.63169911 -7.875 1.1875 C-5.12844028 -0.55198782 -3.18153026 -0.39769128 0 0 Z M-6 3 C-6 4.65 -6 6.3 -6 8 C-4.34385343 8.38218767 -2.67542976 8.71395102 -1 9 C0.29633621 7.93354885 0.29633621 7.93354885 0.0625 5.4375 C0.041875 4.633125 0.02125 3.82875 0 3 C-3.04913228 1.98888907 -3.04913228 1.98888907 -6 3 Z " fill="#010101" transform="translate(166,125)"/>
<path d="M0 0 C0.94875 0.04125 1.8975 0.0825 2.875 0.125 C3.205 1.115 3.535 2.105 3.875 3.125 C2.225 3.125 0.575 3.125 -1.125 3.125 C-1.455 4.775 -1.785 6.425 -2.125 8.125 C-0.805 8.125 0.515 8.125 1.875 8.125 C1.215 7.795 0.555 7.465 -0.125 7.125 C-0.125 6.465 -0.125 5.805 -0.125 5.125 C1.525 5.125 3.175 5.125 4.875 5.125 C5.0625 7.5 5.0625 7.5 4.875 10.125 C1.875 12.125 1.875 12.125 -1.1875 11.9375 C-4.125 11.125 -4.125 11.125 -6.125 8.125 C-5.47962735 0.21918509 -5.47962735 0.21918509 0 0 Z " fill="#010101" transform="translate(132.125,124.875)"/>
<path d="M0 0 C0 0.99 0 1.98 0 3 C-1.65 3 -3.3 3 -5 3 C-5.33 4.32 -5.66 5.64 -6 7 C-3.525 7.99 -3.525 7.99 -1 9 C-1 8.34 -1 7.68 -1 7 C-1.99 7 -2.98 7 -4 7 C-4 6.34 -4 5.68 -4 5 C-2.02 5 -0.04 5 2 5 C1.67 6.98 1.34 8.96 1 11 C-4.28301887 12.32075472 -4.28301887 12.32075472 -7.375 10.9375 C-9 9 -9 9 -9.4375 6 C-9 3 -9 3 -7.875 1.125 C-5.21965017 -0.4682099 -3.03210482 -0.20214032 0 0 Z " fill="#010101" transform="translate(96,125)"/>
<path d="M0 0 C2.97 0 5.94 0 9 0 C9 0.66 9 1.32 9 2 C6.69 2 4.38 2 2 2 C2 2.66 2 3.32 2 4 C3.98 4 5.96 4 8 4 C8 4.99 8 5.98 8 7 C6.02 7 4.04 7 2 7 C2 7.66 2 8.32 2 9 C4.31 9 6.62 9 9 9 C8.67 9.99 8.34 10.98 8 12 C5.36 12 2.72 12 0 12 C0 8.04 0 4.08 0 0 Z " fill="#010101" transform="translate(27,125)"/>
<path d="M0 0 C3.375 -0.125 3.375 -0.125 7 0 C7.66 0.66 8.32 1.32 9 2 C8.69496569 4.00451121 8.35919321 6.00448218 8 8 C8.3577614 10.27650745 8.3577614 10.27650745 9 12 C7.68 11.34 6.36 10.68 5 10 C5 9.34 5 8.68 5 8 C4.01 8 3.02 8 2 8 C2 9.32 2 10.64 2 12 C1.34 12 0.68 12 0 12 C0 8.04 0 4.08 0 0 Z M2 2 C2 2.99 2 3.98 2 5 C3.32 5 4.64 5 6 5 C6 4.01 6 3.02 6 2 C4.68 2 3.36 2 2 2 Z " fill="#010101" transform="translate(143,125)"/>
<path d="M0 0 C6.75 -0.125 6.75 -0.125 9 1 C9 4.66666667 9 8.33333333 9 12 C8.01 11.67 7.02 11.34 6 11 C5.67 10.34 5.34 9.68 5 9 C4.01 8.67 3.02 8.34 2 8 C2 9.32 2 10.64 2 12 C1.34 12 0.68 12 0 12 C0 8.04 0 4.08 0 0 Z M2 2 C2 2.99 2 3.98 2 5 C3.65 5 5.3 5 7 5 C6.67 4.01 6.34 3.02 6 2 C4.68 2 3.36 2 2 2 Z " fill="#010101" transform="translate(72,125)"/>
<path d="M0 0 C6.15234375 -0.09765625 6.15234375 -0.09765625 8 0 C9 1 9 1 9.0625 4.0625 C9.041875 5.031875 9.02125 6.00125 9 7 C7.02 7.33 5.04 7.66 3 8 C2.67 9.32 2.34 10.64 2 12 C1.34 11.67 0.68 11.34 0 11 C0 7.37 0 3.74 0 0 Z M3 2 C3 3.32 3 4.64 3 6 C4.32 5.67 5.64 5.34 7 5 C6.67 4.01 6.34 3.02 6 2 C5.01 2 4.02 2 3 2 Z " fill="#010101" transform="translate(189,125)"/>
<path d="M0 0 C0.99 0 1.98 0 3 0 C3 2.97 3 5.94 3 9 C4.32 8.67 5.64 8.34 7 8 C7.33 5.36 7.66 2.72 8 0 C8.66 0 9.32 0 10 0 C10.08090971 1.62418745 10.13914995 3.24951745 10.1875 4.875 C10.22230469 5.77992188 10.25710937 6.68484375 10.29296875 7.6171875 C10.19628906 8.40351563 10.09960938 9.18984375 10 10 C7 12 7 12 4.4375 11.8125 C2 11 2 11 0 8 C-0.25760279 5.30547479 -0.08900053 2.71451625 0 0 Z " fill="#010101" transform="translate(174,125)"/>
<path d="M0 0 C2.86724686 0.57344937 3.8614515 0.8614515 6 3 C6.66 2.01 7.32 1.02 8 0 C8.99 0.33 9.98 0.66 11 1 C10.54625 1.70125 10.0925 2.4025 9.625 3.125 C7.98313057 6.02984591 6.96322901 8.8139348 6 12 C5.34 11.67 4.68 11.34 4 11 C3.2986716 8.67684969 2.63514826 6.34210921 2 4 C1.37530495 2.64649406 0.7283669 1.30065517 0 0 Z " fill="#010101" transform="translate(101,125)"/>
</svg>
