<?xml version="1.0" encoding="UTF-8"?>
<svg version="1.1" xmlns="http://www.w3.org/2000/svg" width="400" height="270">
<path d="M0 0 C0.98162109 -0.05414063 1.96324219 -0.10828125 2.97460938 -0.1640625 C10.13726936 -0.29857255 10.13726936 -0.29857255 13.51245117 1.99487305 C16.67671942 5.11654144 19.36152801 8.48329297 21.3125 12.5 C21.3125 13.16 21.3125 13.82 21.3125 14.5 C14.74706867 16.49141045 8.89181948 16.68260213 2.0625 16.5 C0.12001738 16.44888204 -1.82273094 16.40685072 -3.765625 16.375 C-4.61543945 16.35179688 -5.46525391 16.32859375 -6.34082031 16.3046875 C-8.95590893 16.52233949 -10.51517801 17.03395771 -12.6875 18.5 C-13.46548334 21.43577786 -13.46548334 21.43577786 -13.6875 24.8125 C-14.15888766 29.98008719 -14.93028198 32.8145344 -18.6875 36.5 C-22.5488835 38.43592966 -25.65111243 38.72707702 -29.94140625 38.66015625 C-31.12541016 38.64919922 -32.30941406 38.63824219 -33.52929688 38.62695312 C-34.75712891 38.60568359 -35.98496094 38.58441406 -37.25 38.5625 C-39.68874255 38.52804367 -42.12755103 38.4979087 -44.56640625 38.47265625 C-45.6447876 38.45468994 -46.72316895 38.43672363 -47.83422852 38.41821289 C-50.31889755 38.48943426 -52.32522277 38.77224033 -54.6875 39.5 C-54.84999454 37.08063683 -54.96847817 34.67218141 -55.0625 32.25 C-55.11277344 31.56808594 -55.16304687 30.88617188 -55.21484375 30.18359375 C-55.32110047 26.53544621 -54.96116232 24.81361302 -52.546875 22.046875 C-47.20521226 19.14643892 -40.44930299 19.98203417 -34.5625 20 C-32.03905261 20.00765454 -29.515477 19.99799782 -26.9921875 19.96875 C-25.3213208 19.97551758 -25.3213208 19.97551758 -23.61669922 19.98242188 C-20.04131968 19.3935779 -18.88254414 18.32472431 -16.6875 15.5 C-16.10880285 13.32362248 -16.10880285 13.32362248 -16.125 11.0625 C-15.85393361 7.14494523 -15.16431395 4.67032186 -12.6875 1.5 C-8.84186793 -0.42281604 -4.23143316 0.0980886 0 0 Z " fill="#17CD8D" transform="translate(93.6875,102.5)"/>
<path d="M0 0 C0.78371382 10.91974582 0.78371382 10.91974582 -2.3125 15.1875 C-6.34810748 17.90918876 -9.29539445 18.12684307 -14.05859375 18.17578125 C-15.84426758 18.21155273 -15.84426758 18.21155273 -17.66601562 18.24804688 C-20.17626025 18.29094593 -22.68673068 18.32223427 -25.19726562 18.34179688 C-26.98487305 18.38336914 -26.98487305 18.38336914 -28.80859375 18.42578125 C-29.89970459 18.44036377 -30.99081543 18.45494629 -32.11499023 18.4699707 C-35.63737895 19.11709822 -36.82676564 20.2060259 -39 23 C-39.58121631 25.40698634 -39.58121631 25.40698634 -39.5625 27.9375 C-39.82942725 32.05667274 -40.25328106 34.7446294 -43 38 C-46.67617229 40.51012248 -50.57854922 40.3671166 -54.875 40.375 C-55.56980469 40.39949219 -56.26460937 40.42398438 -56.98046875 40.44921875 C-63.11388331 40.48387081 -66.49477959 38.39280668 -70.828125 34.25390625 C-73.57650423 30.98454304 -75.73831076 28.16357448 -77 24 C-73.59590178 21.93111237 -71.01048137 21.77609776 -67.0625 21.83984375 C-65.92039062 21.85080078 -64.77828125 21.86175781 -63.6015625 21.87304688 C-62.41304687 21.89431641 -61.22453125 21.91558594 -60 21.9375 C-57.64589519 21.971969 -55.29172182 22.00210097 -52.9375 22.02734375 C-51.37322266 22.05429321 -51.37322266 22.05429321 -49.77734375 22.08178711 C-47.32543412 22.00958337 -45.33372345 21.71389831 -43 21 C-42.90203125 20.11957031 -42.8040625 19.23914063 -42.703125 18.33203125 C-42.55359375 17.17058594 -42.4040625 16.00914062 -42.25 14.8125 C-42.11078125 13.66394531 -41.9715625 12.51539063 -41.828125 11.33203125 C-40.89900846 7.59365197 -39.69001168 5.72488221 -37 3 C-33.86397581 1.9546586 -31.76869224 1.91287803 -28.484375 1.97265625 C-27.39769531 1.98490234 -26.31101563 1.99714844 -25.19140625 2.00976562 C-22.91269314 2.04468348 -20.63403868 2.08368914 -18.35546875 2.12695312 C-12.00282185 2.1907046 -6.01615903 0 0 0 Z " fill="#17CE8C" transform="translate(120,129)"/>
<path d="M0 0 C1.98 0 3.96 0 6 0 C7.88225535 4.95080609 8.5849333 9.65140401 9.125 14.875 C9.21136719 15.65875 9.29773438 16.4425 9.38671875 17.25 C9.5970149 19.16603159 9.79932744 21.0829366 10 23 C10.66 22.67 11.32 22.34 12 22 C12.51210029 20.11771118 12.51210029 20.11771118 12.74609375 17.8515625 C12.86146484 17.01109375 12.97683594 16.170625 13.09570312 15.3046875 C13.32252493 13.52640456 13.54651029 11.74775741 13.76757812 9.96875 C13.88423828 9.12570313 14.00089844 8.28265625 14.12109375 7.4140625 C14.2183374 6.6401416 14.31558105 5.8662207 14.41577148 5.06884766 C15.1231249 2.56399482 15.92870321 1.55795559 18 0 C21.5 -0.4375 21.5 -0.4375 25 0 C28.85230432 3.46054456 28.99296169 8.39202714 29.6875 13.25 C29.81705078 14.09046875 29.94660156 14.9309375 30.08007812 15.796875 C30.39704442 17.86302567 30.69991516 19.93133006 31 22 C33.43319494 18.07107484 33.85607795 13.7939817 34.5625 9.3125 C35.87426614 1.12573386 35.87426614 1.12573386 37 0 C38.66617115 -0.04063832 40.33388095 -0.042721 42 0 C43.43119996 4.6778546 42.51958303 8.69413543 41.75 13.4375 C41.56630859 14.7069043 41.56630859 14.7069043 41.37890625 16.00195312 C40.65420765 20.58333984 39.90344908 24.23599256 37 28 C34.11138291 29.44430855 32.20352299 29.37688506 29 29 C26.26970761 27.32459331 25.43407911 26.73778739 24 24 C23.23127926 20.62431327 22.74889454 17.30273883 22.359375 13.86328125 C22.16867953 11.06040481 22.16867953 11.06040481 21 9 C20.83564453 10.42892578 20.83564453 10.42892578 20.66796875 11.88671875 C20.43013672 13.76810547 20.43013672 13.76810547 20.1875 15.6875 C20.03667969 16.92886719 19.88585937 18.17023438 19.73046875 19.44921875 C19.00734176 22.96431199 18.11435728 25.12937387 16 28 C13.11138291 29.44430855 11.20352299 29.37688506 8 29 C3.55247243 25.62068524 2.31568494 22.75292879 1.49414062 17.45507812 C1.39294922 16.66552734 1.29175781 15.87597656 1.1875 15.0625 C1.06697266 14.27681641 0.94644531 13.49113281 0.82226562 12.68164062 C0.19868433 8.42347121 -0.13155897 4.31374936 0 0 Z " fill="#02329C" transform="translate(238,121)"/>
<path d="M0 0 C3.31588241 2.31340633 4.34748244 4.07828358 5.6875 7.875 C6.09503493 12.03185632 6.04023568 13.34589647 3.6875 16.875 C0.91487745 17.25894667 -1.65573528 17.47842248 -4.4375 17.5625 C-5.19160156 17.59666016 -5.94570312 17.63082031 -6.72265625 17.66601562 C-8.58541201 17.74854278 -10.44893326 17.81344711 -12.3125 17.875 C-12.3125 18.865 -12.3125 19.855 -12.3125 20.875 C-7.0325 20.875 -1.7525 20.875 3.6875 20.875 C4.0175 22.525 4.3475 24.175 4.6875 25.875 C0.62354418 29.12616466 -2.86657422 29.32802882 -7.875 29.1640625 C-12.05903829 28.66787847 -14.96937848 27.20845878 -17.94140625 24.2578125 C-19.86771832 20.91009068 -19.82629377 17.75880128 -19.8125 14 C-19.85503906 12.95779297 -19.85503906 12.95779297 -19.8984375 11.89453125 C-19.91313931 7.99120142 -19.36392306 5.44163561 -16.96875 2.4296875 C-12.07272809 -2.27913357 -6.13975302 -2.08519914 0 0 Z M-11.75 6.6875 C-13.50624606 8.69820672 -13.50624606 8.69820672 -13.3125 10.875 C-9.3525 10.875 -5.3925 10.875 -1.3125 10.875 C-1.6425 9.225 -1.9725 7.575 -2.3125 5.875 C-7.32826689 4.55479753 -7.32826689 4.55479753 -11.75 6.6875 Z " fill="#01319C" transform="translate(154.3125,121.125)"/>
<path d="M0 0 C3.06712284 2.45369827 5.02487793 4.31892576 5.48046875 8.328125 C5.44566406 9.20984375 5.41085938 10.0915625 5.375 11 C5.34792969 11.89203125 5.32085937 12.7840625 5.29296875 13.703125 C5.25816406 14.37859375 5.22335938 15.0540625 5.1875 15.75 C1.99925432 17.34412284 -1.44146662 16.85174735 -4.9375 16.8125 C-5.69160156 16.80798828 -6.44570312 16.80347656 -7.22265625 16.79882812 C-9.08597127 16.78703499 -10.94924555 16.76909942 -12.8125 16.75 C-12.1525 18.07 -11.4925 19.39 -10.8125 20.75 C-5.8625 20.75 -0.9125 20.75 4.1875 20.75 C4.1875 22.73 4.1875 24.71 4.1875 26.75 C-0.93991844 29.39640952 -6.28059492 29.55826289 -11.84375 28.28515625 C-14.93370542 27.17879509 -16.71579465 25.87166156 -18.75 23.3125 C-20.65368044 16.92957146 -20.69534951 10.54569012 -18.6875 4.1875 C-14.04874598 -1.84288023 -6.83255761 -3.03669227 0 0 Z M-12.8125 7.75 C-12.8125 8.74 -12.8125 9.73 -12.8125 10.75 C-8.8525 10.75 -4.8925 10.75 -0.8125 10.75 C-1.3864739 6.54819816 -1.3864739 6.54819816 -4.8125 4.75 C-9.02424952 4.75 -9.9061485 4.94744677 -12.8125 7.75 Z " fill="#02329B" transform="translate(210.8125,121.25)"/>
<path d="M0 0 C2.625 1.6875 2.625 1.6875 4.625 4.6875 C4.85546875 7.3515625 4.85546875 7.3515625 4.8125 10.3125 C4.80605469 11.29476562 4.79960937 12.27703125 4.79296875 13.2890625 C4.625 15.6875 4.625 15.6875 3.625 16.6875 C0.93264224 16.92428716 -1.73998156 17.10948025 -4.4375 17.25 C-5.57541992 17.31477539 -5.57541992 17.31477539 -6.73632812 17.38085938 C-8.61565438 17.48723633 -10.49530244 17.58789934 -12.375 17.6875 C-12.375 18.6775 -12.375 19.6675 -12.375 20.6875 C-11.23160156 20.67589844 -10.08820313 20.66429687 -8.91015625 20.65234375 C-7.41927246 20.64296712 -5.92838691 20.63386679 -4.4375 20.625 C-3.68275391 20.61662109 -2.92800781 20.60824219 -2.15039062 20.59960938 C-0.22505687 20.59097559 1.70035581 20.63525667 3.625 20.6875 C4.625 21.6875 4.625 21.6875 4.6875 24.25 C4.666875 25.054375 4.64625 25.85875 4.625 26.6875 C-0.18432186 29.25247166 -5.06645314 29.24047363 -10.375 28.6875 C-14.6353856 27.13826887 -17.11525642 25.6146897 -19.375 21.6875 C-19.72272751 18.95783905 -19.88499978 16.53744054 -19.875 13.8125 C-19.91753906 12.77029297 -19.91753906 12.77029297 -19.9609375 11.70703125 C-19.97563931 7.80370142 -19.42642306 5.25413561 -17.03125 2.2421875 C-12.10961134 -2.49127086 -6.08932133 -2.36806941 0 0 Z M-11.8125 6.5 C-13.56874606 8.51070672 -13.56874606 8.51070672 -13.375 10.6875 C-9.415 10.6875 -5.455 10.6875 -1.375 10.6875 C-1.705 9.0375 -2.035 7.3875 -2.375 5.6875 C-7.39076689 4.36729753 -7.39076689 4.36729753 -11.8125 6.5 Z " fill="#02319C" transform="translate(356.375,121.3125)"/>
<path d="M0 0 C4.11275909 1.54228466 5.55780938 2.33671407 8 6 C8.45000334 9.13073749 8.37028046 12.27776653 8.375 15.4375 C8.39949219 16.29666016 8.42398437 17.15582031 8.44921875 18.04101562 C8.47853542 24.33921385 8.47853542 24.33921385 6.1640625 27.53515625 C1.72044636 30.54301916 -2.81758518 30.50409154 -8 30 C-12.06662662 28.44728802 -13.57519602 27.63720598 -16 24 C-16.50835292 20.1026276 -16.32962183 18.49443274 -14.125 15.1875 C-10.941197 11.91005573 -8.83142968 11.80023265 -4.375 11.4375 C-3.37210937 11.35371094 -2.36921875 11.26992187 -1.3359375 11.18359375 C-0.56507813 11.12300781 0.20578125 11.06242188 1 11 C1 9.68 1 8.36 1 7 C-3.29 7 -7.58 7 -12 7 C-12.33 5.35 -12.66 3.7 -13 2 C-8.73890368 -0.84073088 -5.00143521 -0.5133666 0 0 Z M-9 19 C-9 20.32 -9 21.64 -9 23 C-6.26094655 24.36952673 -4.02912668 24.12621361 -1 24 C-0.34 23.67 0.32 23.34 1 23 C1 21.02 1 19.04 1 17 C-4.32170494 16.70437633 -4.32170494 16.70437633 -9 19 Z " fill="#03319C" transform="translate(297,120)"/>
<path d="M0 0 C3.39750609 2.37035309 4.19541329 4.00422432 5.6875 7.875 C6.05635775 11.15737155 6.01740554 14.38889954 5.9375 17.6875 C5.93234375 18.55826172 5.9271875 19.42902344 5.921875 20.32617188 C5.84213447 26.72036553 5.84213447 26.72036553 4.6875 27.875 C2.68791636 27.91580783 0.68704746 27.91754356 -1.3125 27.875 C-1.33755615 27.27437744 -1.3626123 26.67375488 -1.38842773 26.05493164 C-1.5040528 23.34888563 -1.62692936 20.64321717 -1.75 17.9375 C-1.78931641 16.99197266 -1.82863281 16.04644531 -1.86914062 15.07226562 C-1.91103516 14.17314453 -1.95292969 13.27402344 -1.99609375 12.34765625 C-2.03275146 11.51500244 -2.06940918 10.68234863 -2.10717773 9.82446289 C-2.10617103 7.87161142 -2.10617103 7.87161142 -3.3125 6.875 C-5.98308851 6.73384839 -8.63682238 6.83252893 -11.3125 6.875 C-12.45904482 9.16808963 -12.50979117 10.67409656 -12.62890625 13.2265625 C-12.67080078 14.07734375 -12.71269531 14.928125 -12.75585938 15.8046875 C-12.79517578 16.69414062 -12.83449219 17.58359375 -12.875 18.5 C-12.93977539 19.84578125 -12.93977539 19.84578125 -13.00585938 21.21875 C-13.11206861 23.43734283 -13.21411194 25.6560488 -13.3125 27.875 C-15.2925 27.875 -17.2725 27.875 -19.3125 27.875 C-20.91658988 24.66682025 -20.53869086 21.2082767 -20.5625 17.6875 C-20.583125 16.94435547 -20.60375 16.20121094 -20.625 15.43554688 C-20.66193383 10.16785985 -19.81920532 6.5328496 -17.3125 1.875 C-11.78926224 -2.10686908 -6.24669341 -2.12151852 0 0 Z " fill="#02309A" transform="translate(182.3125,121.125)"/>
<path d="M0 0 C2.31 0 4.62 0 7 0 C8.98 7.26 10.96 14.52 13 22 C13.66 22 14.32 22 15 22 C15.14622803 21.40461426 15.29245605 20.80922852 15.44311523 20.19580078 C16.10545685 17.50492304 16.77143268 14.81495783 17.4375 12.125 C17.66759766 11.18785156 17.89769531 10.25070313 18.13476562 9.28515625 C18.35712891 8.38925781 18.57949219 7.49335938 18.80859375 6.5703125 C19.11494751 5.32918701 19.11494751 5.32918701 19.42749023 4.06298828 C20 2 20 2 21 0 C22.98 0 24.96 0 27 0 C28.09220093 3.27660278 27.91390384 4.24159939 27.109375 7.4921875 C26.89410156 8.36230469 26.67882812 9.23242188 26.45703125 10.12890625 C26.22371094 11.03511719 25.99039062 11.94132813 25.75 12.875 C25.53214844 13.77347656 25.31429688 14.67195312 25.08984375 15.59765625 C22.88497937 24.32685616 22.88497937 24.32685616 20 28 C16.40735548 29.19754817 13.77282526 29.33094958 10 29 C5.44149891 25.74145169 4.61721215 21.35181078 3.3125 16.1875 C2.99442383 15.01477539 2.99442383 15.01477539 2.66992188 13.81835938 C1.45415377 9.22758831 0.57268646 4.7136501 0 0 Z " fill="#033098" transform="translate(307,121)"/>
<path d="M0 0 C-0.17487238 2.08640845 -0.39127202 4.16936265 -0.625 6.25 C-0.74101563 7.41015625 -0.85703125 8.5703125 -0.9765625 9.765625 C-2.01552617 13.04906743 -2.88044104 14.6100007 -5.90478516 16.32910156 C-10.72287043 17.87187694 -15.87720168 17.39666225 -20.875 17.25 C-22.0403125 17.23195313 -23.205625 17.21390625 -24.40625 17.1953125 C-27.27168249 17.1483382 -30.13541168 17.08266293 -33 17 C-25.98571847 5.04058266 -13.92007175 -1.38584785 0 0 Z " fill="#19CC8C" transform="translate(79,95)"/>
<path d="M0 0 C1.16982422 0.02255859 2.33964844 0.04511719 3.54492188 0.06835938 C6.42708769 0.12717909 9.30663681 0.20932859 12.1875 0.3125 C8.78802681 7.42165059 2.36844371 11.42531645 -4.8125 14.3125 C-7.95348158 15.30168438 -10.77720553 15.41822756 -14.0625 15.375 C-14.95453125 15.36597656 -15.8465625 15.35695312 -16.765625 15.34765625 C-17.44109375 15.33605469 -18.1165625 15.32445312 -18.8125 15.3125 C-18.77910714 13.74910708 -18.70934235 12.1864733 -18.625 10.625 C-18.59019531 9.75488281 -18.55539063 8.88476562 -18.51953125 7.98828125 C-16.01537775 -1.48876375 -8.07569223 -0.29407283 0 0 Z " fill="#19CC8D" transform="translate(97.8125,159.6875)"/>
<path d="M0 0 C0.66 0.66 1.32 1.32 2 2 C1.625 4.625 1.625 4.625 1 7 C-1.64 7.33 -4.28 7.66 -7 8 C-7.33 14.93 -7.66 21.86 -8 29 C-9.98 29 -11.96 29 -14 29 C-16.34787906 26.65212094 -15.23326371 20.9006075 -15.25 17.75 C-15.270625 16.79480469 -15.29125 15.83960938 -15.3125 14.85546875 C-15.36154953 6.03881504 -15.36154953 6.03881504 -12 2 C-8.40019745 -0.79984643 -4.35255168 -0.28080979 0 0 Z " fill="#02319C" transform="translate(234,120)"/>
</svg>
