<?xml version="1.0" encoding="UTF-8"?>
<svg version="1.1" xmlns="http://www.w3.org/2000/svg" width="500" height="500">
<path d="M0 0 C0 0.66 0 1.32 0 2 C0.58394531 2.25910156 1.16789062 2.51820313 1.76953125 2.78515625 C4.16044848 4.08738963 5.77487096 5.50827548 7.6875 7.4375 C8.28949219 8.03433594 8.89148438 8.63117188 9.51171875 9.24609375 C11 11 11 11 12 14 C15.7910119 12.55049545 19.3874638 10.84827434 23 9 C22.82374165 11.37948772 22.30280227 12.70225849 20.59765625 14.37890625 C19.09350908 15.62115486 17.54870149 16.81376056 16 18 C16.20496094 18.53625 16.40992188 19.0725 16.62109375 19.625 C21.45010722 33.67303918 21.00196622 48.00817391 15.1796875 61.62890625 C10.97254439 70.08498529 2.92839445 79.48050841 -6 83 C-6.99 83 -7.98 83 -9 83 C-10.29487016 79.11538953 -10.1232604 75.44116044 -10.09765625 71.39453125 C-10.0962413 70.55532639 -10.09482635 69.71612152 -10.09336853 68.85148621 C-10.08777215 66.17178784 -10.07522035 63.4921731 -10.0625 60.8125 C-10.05748453 58.99544392 -10.05292171 57.17838652 -10.04882812 55.36132812 C-10.03780391 50.90751987 -10.02054178 46.45377411 -10 42 C-10.66 42 -11.32 42 -12 42 C-12 42.66 -12 43.32 -12 44 C-12.66 44 -13.32 44 -14 44 C-13.98952637 45.23153809 -13.97905273 46.46307617 -13.96826172 47.73193359 C-13.93212911 52.29033515 -13.90912415 56.84872398 -13.89013672 61.40722656 C-13.88006373 63.38218309 -13.86640479 65.35712466 -13.84912109 67.33203125 C-13.82492961 70.16670418 -13.81353009 73.00118038 -13.8046875 75.8359375 C-13.79436493 76.72243988 -13.78404236 77.60894226 -13.77340698 78.52230835 C-13.7730093 80.68285952 -13.87727466 82.84293718 -14 85 C-17.57018526 88.57018526 -23.034316 88.07439991 -27.875 88.1875 C-41.82936575 88.01835617 -53.75107492 82.40181688 -63.5625 72.625 C-64.71614861 71.42412601 -65.86499327 70.21850859 -67 69 C-67.75925781 69.5775 -68.51851562 70.155 -69.30078125 70.75 C-70.29464844 71.4925 -71.28851563 72.235 -72.3125 73 C-73.29863281 73.7425 -74.28476563 74.485 -75.30078125 75.25 C-78 77 -78 77 -81 77 C-79.65365543 72.5937814 -77.80625626 70.56922298 -74 68 C-73.34 68 -72.68 68 -72 68 C-72 67.34 -72 66.68 -72 66 C-71.34 66 -70.68 66 -70 66 C-71.27212551 61.94719417 -71.27212551 61.94719417 -73 58.078125 C-78.36524511 46.92847501 -76.62139741 33.33725765 -73 22 C-72.09625192 19.59407605 -71.10810747 17.32174899 -70 15 C-69.34 15 -68.68 15 -68 15 C-67.773125 14.29875 -67.54625 13.5975 -67.3125 12.875 C-64.39298201 6.47986535 -59.82868913 2.66991538 -54 -1 C-53.01 -1 -52.02 -1 -51 -1 C-51 -1.66 -51 -2.32 -51 -3 C-49.0625 -3.5625 -49.0625 -3.5625 -47 -4 C-46 -3 -46 -3 -45.87974548 -1.17137146 C-45.88196609 -0.37417191 -45.88418671 0.42302765 -45.88647461 1.24438477 C-45.88655014 2.14524307 -45.88662567 3.04610138 -45.88670349 3.97425842 C-45.89186478 4.95341721 -45.89702606 5.93257599 -45.90234375 6.94140625 C-45.9037587 7.93881332 -45.90517365 8.9362204 -45.90663147 9.96385193 C-45.91224886 13.16343124 -45.92480429 16.36294169 -45.9375 19.5625 C-45.94251276 21.72591045 -45.94707605 23.88932199 -45.95117188 26.05273438 C-45.96222393 31.36851325 -45.97897896 36.68425171 -46 42 C-42.89126724 40.12617619 -42.89126724 40.12617619 -41.48101807 36.93086243 C-41.4676944 35.74172493 -41.4676944 35.74172493 -41.45410156 34.52856445 C-41.43438293 33.62785721 -41.41466431 32.72714996 -41.39434814 31.79914856 C-41.39311951 30.83031235 -41.39189087 29.86147614 -41.390625 28.86328125 C-41.37408875 27.86870407 -41.35755249 26.87412689 -41.34051514 25.84941101 C-41.2919005 22.67037871 -41.27063406 19.4918252 -41.25 16.3125 C-41.22185163 14.15817886 -41.19192581 12.00388016 -41.16015625 9.84960938 C-41.08613839 4.56649357 -41.0345749 -0.71648684 -41 -6 C-26.3009325 -10.34474901 -13.19420127 -7.38524982 0 0 Z M-14 8 C-14 16.25 -14 24.5 -14 33 C-12.35 32.01 -10.7 31.02 -9 30 C-9.33 22.74 -9.66 15.48 -10 8 C-11.32 8 -12.64 8 -14 8 Z M-46 54 C-46.54913579 56.31090728 -46.54913579 56.31090728 -46.390625 58.88671875 C-46.37773438 59.82451172 -46.36484375 60.76230469 -46.3515625 61.72851562 C-46.31804687 62.70498047 -46.28453125 63.68144531 -46.25 64.6875 C-46.23195312 65.67556641 -46.21390625 66.66363281 -46.1953125 67.68164062 C-46.14815447 70.12206842 -46.08236042 72.56054769 -46 75 C-44.35 75 -42.7 75 -41 75 C-41 67.08 -41 59.16 -41 51 C-43.17067292 51 -44.49877266 52.61851964 -46 54 Z " fill="#2F4B7F" transform="translate(120,210)"/>
<path d="M0 0 C0.67804688 0.53496094 1.35609375 1.06992188 2.0546875 1.62109375 C2.0546875 2.28109375 2.0546875 2.94109375 2.0546875 3.62109375 C2.7146875 3.62109375 3.3746875 3.62109375 4.0546875 3.62109375 C10.57763823 10.97985432 13.73026888 20.57341985 13.34375 30.359375 C12.4974093 36.9814191 10.77588054 42.73710095 6.0546875 47.62109375 C8.0346875 47.62109375 10.0146875 47.62109375 12.0546875 47.62109375 C12.0546875 53.23109375 12.0546875 58.84109375 12.0546875 64.62109375 C0.8346875 64.62109375 -10.3853125 64.62109375 -21.9453125 64.62109375 C-21.9453125 58.68109375 -21.9453125 52.74109375 -21.9453125 46.62109375 C-19.3053125 45.30109375 -16.6653125 43.98109375 -13.9453125 42.62109375 C-10.26558269 38.94136394 -7.97126022 35.75083237 -6.9453125 30.62109375 C-7.0303583 26.23273054 -7.80406132 22.47534587 -9.9453125 18.62109375 C-9.9453125 17.63109375 -9.9453125 16.64109375 -9.9453125 15.62109375 C-11.26789722 14.9333497 -12.60517753 14.27398002 -13.9453125 13.62109375 C-15.0384375 13.08484375 -16.1315625 12.54859375 -17.2578125 11.99609375 C-21.84600446 10.28524251 -25.40668756 9.57936596 -30.05859375 11.48828125 C-31.43707762 12.17878323 -32.80209999 12.89718117 -34.1484375 13.6484375 C-35.9453125 14.62109375 -35.9453125 14.62109375 -38.9453125 15.62109375 C-39.63012345 17.43397902 -39.63012345 17.43397902 -39.9453125 19.62109375 C-40.14511719 20.39066406 -40.34492188 21.16023438 -40.55078125 21.953125 C-41.85617785 27.5163924 -42.08942217 31.1536141 -39.9453125 36.62109375 C-39.6565625 37.54921875 -39.3678125 38.47734375 -39.0703125 39.43359375 C-37.67492849 42.14684044 -36.75508765 42.52840341 -33.9453125 43.62109375 C-28.06069712 46.39032452 -28.06069712 46.39032452 -26.9453125 48.62109375 C-26.84758248 51.15345095 -26.80620863 53.65194967 -26.8203125 56.18359375 C-26.81451172 57.23063477 -26.81451172 57.23063477 -26.80859375 58.29882812 C-26.81867256 63.49445381 -26.81867256 63.49445381 -27.9453125 64.62109375 C-30.46625326 64.70957118 -32.95962143 64.73636676 -35.48046875 64.71875 C-36.61034462 64.71662758 -36.61034462 64.71662758 -37.76304626 64.71446228 C-40.1780081 64.70884751 -42.59287851 64.69629258 -45.0078125 64.68359375 C-46.64127471 64.67858065 -48.27473836 64.67401741 -49.90820312 64.66992188 C-53.9206368 64.6597225 -57.93287186 64.6401502 -61.9453125 64.62109375 C-61.9453125 59.01109375 -61.9453125 53.40109375 -61.9453125 47.62109375 C-59.9653125 47.62109375 -57.9853125 47.62109375 -55.9453125 47.62109375 C-55.9453125 46.96109375 -55.9453125 46.30109375 -55.9453125 45.62109375 C-56.6053125 45.62109375 -57.2653125 45.62109375 -57.9453125 45.62109375 C-62.06920961 36.29750028 -63.86699378 26.89147541 -60.7578125 16.80859375 C-56.1422773 5.0872811 -48.98485287 -0.63506278 -37.91015625 -6.1796875 C-24.34610113 -11.6660708 -11.68126412 -7.52325182 0 0 Z " fill="#334E81" transform="translate(374.9453125,221.37890625)"/>
<path d="M0 0 C4.32032327 0.13462764 6.1543918 0.46358705 9.5690918 3.30688477 C11.81259141 6.40376374 13.73975349 9.56746643 15.65112305 12.87719727 C16.8013099 14.26319648 17.98329341 15.6243218 19.21362305 16.93969727 C21.65112305 19.87719727 21.65112305 19.87719727 21.65112305 22.87719727 C22.64112305 23.20719727 23.63112305 23.53719727 24.65112305 23.87719727 C26.31309204 25.82620753 27.83558806 27.750721 29.33862305 29.81469727 C29.7543457 30.36577148 30.17006836 30.9168457 30.59838867 31.48461914 C33.65112305 35.61007134 33.65112305 35.61007134 33.65112305 37.87719727 C34.31112305 37.87719727 34.97112305 37.87719727 35.65112305 37.87719727 C35.98112305 25.66719727 36.31112305 13.45719727 36.65112305 0.87719727 C42.59112305 0.87719727 48.53112305 0.87719727 54.65112305 0.87719727 C55.65112305 1.87719727 55.65112305 1.87719727 55.77137756 4.69288635 C55.76915695 5.95197311 55.76693634 7.21105988 55.76464844 8.50830078 C55.76479446 9.20095032 55.76494049 9.89359985 55.76509094 10.60723877 C55.76439179 12.90689172 55.75659933 15.20646463 55.7487793 17.50610352 C55.74691512 19.09651139 55.74549122 20.68691984 55.74449158 22.27732849 C55.74066633 26.47115656 55.730836 30.66495021 55.7197876 34.85876465 C55.70957361 39.13508641 55.70499399 43.41141371 55.69995117 47.68774414 C55.68921373 56.08424434 55.67213724 64.48071653 55.65112305 72.87719727 C52.91060492 72.9786701 50.1738626 73.05289791 47.43237305 73.11157227 C46.65925781 73.14299316 45.88614258 73.17441406 45.08959961 73.20678711 C41.26721246 73.26817448 39.24225935 73.25850807 35.9597168 71.14111328 C33.90445164 68.85252226 32.30526258 66.47085904 30.65112305 63.87719727 C29.83913407 62.80244705 29.01560321 61.73634595 28.18237305 60.67797852 C21.65112305 52.34138299 21.65112305 52.34138299 21.65112305 49.87719727 C20.99112305 49.87719727 20.33112305 49.87719727 19.65112305 49.87719727 C19.65112305 48.88719727 19.65112305 47.89719727 19.65112305 46.87719727 C18.99112305 46.87719727 18.33112305 46.87719727 17.65112305 46.87719727 C16.04922685 44.92846849 14.55775829 42.98441788 13.08862305 40.93969727 C10.54359983 37.2601883 10.54359983 37.2601883 7.65112305 33.87719727 C7.32112305 46.74719727 6.99112305 59.61719727 6.65112305 72.87719727 C1.04112305 72.87719727 -4.56887695 72.87719727 -10.34887695 72.87719727 C-12.21873516 71.00733906 -11.47667044 67.84572106 -11.47827148 65.35375977 C-11.4800238 64.67247009 -11.48177612 63.99118042 -11.48358154 63.28924561 C-11.48799938 61.0268706 -11.48506233 58.76457313 -11.48168945 56.50219727 C-11.48236251 54.93660466 -11.48333255 53.37101216 -11.48458862 51.80541992 C-11.4860655 48.52009082 -11.48391136 45.23478885 -11.47924805 41.94946289 C-11.47355076 37.72899211 -11.47682982 33.5085849 -11.48282051 29.28811646 C-11.4864264 26.05403155 -11.48528741 22.81996182 -11.48269272 19.58587646 C-11.48202353 18.02927645 -11.48285161 16.47267508 -11.48517227 14.91607666 C-11.48769925 12.74422531 -11.4838576 10.57247831 -11.47827148 8.40063477 C-11.47747589 7.1623291 -11.4766803 5.92402344 -11.4758606 4.64819336 C-11.20441458 -1.27521405 -4.72776654 0.1302212 0 0 Z " fill="#355083" transform="translate(409.348876953125,213.122802734375)"/>
<path d="M0 0 C0.74886475 0.00523682 1.49772949 0.01047363 2.26928711 0.01586914 C3.36188843 0.01961548 3.36188843 0.01961548 4.4765625 0.0234375 C5.40718506 0.0325415 6.33780762 0.04164551 7.29663086 0.05102539 C11.72069336 0.08196289 11.72069336 0.08196289 16.23413086 0.11352539 C16.23413086 8.69352539 16.23413086 17.27352539 16.23413086 26.11352539 C26.13413086 26.11352539 36.03413086 26.11352539 46.23413086 26.11352539 C46.19453946 17.93099742 46.19453946 17.93099742 46.14404297 9.74853516 C46.14154541 8.735896 46.13904785 7.72325684 46.13647461 6.67993164 C46.13123779 5.63780518 46.12600098 4.59567871 46.12060547 3.52197266 C46.23413086 1.11352539 46.23413086 1.11352539 47.23413086 0.11352539 C53.17413086 0.11352539 59.11413086 0.11352539 65.23413086 0.11352539 C65.23413086 23.87352539 65.23413086 47.63352539 65.23413086 72.11352539 C58.96413086 72.11352539 52.69413086 72.11352539 46.23413086 72.11352539 C46.23413086 62.87352539 46.23413086 53.63352539 46.23413086 44.11352539 C36.33413086 44.11352539 26.43413086 44.11352539 16.23413086 44.11352539 C16.23413086 53.35352539 16.23413086 62.59352539 16.23413086 72.11352539 C9.96413086 72.11352539 3.69413086 72.11352539 -2.76586914 72.11352539 C-2.78842175 62.87354668 -2.80678515 53.63358611 -2.81768131 44.39358616 C-2.82290975 40.10352624 -2.83000667 35.81348606 -2.84130859 31.5234375 C-2.85213889 27.38673139 -2.85814628 23.25004431 -2.86074638 19.11332512 C-2.86260038 17.53160235 -2.8662205 15.94988068 -2.8715992 14.36816597 C-2.87881154 12.16029701 -2.87986 9.95250766 -2.87939453 7.74462891 C-2.88161514 6.48554214 -2.88383575 5.22645538 -2.88612366 3.92921448 C-2.72579607 0.17523782 -2.72579607 0.17523782 0 0 Z " fill="#334E81" transform="translate(164.765869140625,213.886474609375)"/>
<path d="M0 0 C7.363125 -0.0825 14.72625 -0.165 22.3125 -0.25 C24.61387939 -0.28641602 26.91525879 -0.32283203 29.28637695 -0.36035156 C31.14533562 -0.37205257 33.00430467 -0.38224103 34.86328125 -0.390625 C35.80022827 -0.41108887 36.73717529 -0.43155273 37.70251465 -0.45263672 C45.1505178 -0.45649729 53.17009993 0.67727529 58.98384094 5.72113037 C65.26535879 12.57318955 66.61636009 19.15724214 66.41015625 28.29296875 C65.67069946 34.97624961 63.03777298 39.66506442 57.8125 43.875 C49.14036006 49.09390284 40.2699835 49.40260834 30.375 49.1875 C29.18003906 49.17396484 27.98507812 49.16042969 26.75390625 49.14648438 C23.83573909 49.11146637 20.91780734 49.05767262 18 49 C18 56.59 18 64.18 18 72 C12.06 72 6.12 72 0 72 C0 48.24 0 24.48 0 0 Z M18 18 C18 22.62 18 27.24 18 32 C21.72960366 32.08101311 25.45744359 32.14051069 29.1875 32.1875 C30.77014648 32.22520508 30.77014648 32.22520508 32.38476562 32.26367188 C33.40634766 32.27333984 34.42792969 32.28300781 35.48046875 32.29296875 C36.41785889 32.3086792 37.35524902 32.32438965 38.32104492 32.34057617 C41.81538997 31.89633929 44.49463794 30.50536206 47 28 C47.28283862 24.81806555 47.35923685 22.68421678 45.8581543 19.82519531 C44.0994671 17.74838686 44.0994671 17.74838686 41.27270508 17.54589844 C39.66238403 17.57731934 39.66238403 17.57731934 38.01953125 17.609375 C36.27446289 17.62871094 36.27446289 17.62871094 34.49414062 17.6484375 C33.27919922 17.68195313 32.06425781 17.71546875 30.8125 17.75 C28.97268555 17.77707031 28.97268555 17.77707031 27.09570312 17.8046875 C24.06347042 17.85188178 21.03163808 17.92362563 18 18 Z " fill="#355183" transform="translate(240,214)"/>
<path d="M0 0 C0.87398437 0.48919922 0.87398437 0.48919922 1.765625 0.98828125 C1.765625 1.64828125 1.765625 2.30828125 1.765625 2.98828125 C2.34957031 3.24867188 2.93351562 3.5090625 3.53515625 3.77734375 C5.90899194 5.06611619 7.54076554 6.46336665 9.453125 8.36328125 C10.05511719 8.94851562 10.65710938 9.53375 11.27734375 10.13671875 C12.86697513 12.11437039 13.3561676 13.50969915 13.765625 15.98828125 C12.16882696 17.33043045 10.56292303 18.6617524 8.953125 19.98828125 C8.05980469 20.73078125 7.16648438 21.47328125 6.24609375 22.23828125 C3.765625 23.98828125 3.765625 23.98828125 0.765625 23.98828125 C0.4253125 24.91640625 0.4253125 24.91640625 0.078125 25.86328125 C-1.61367335 28.60238334 -3.22681661 29.03852597 -6.234375 29.98828125 C-8.44649246 22.93715686 -8.43614572 16.34170304 -8.234375 8.98828125 C-9.554375 8.98828125 -10.874375 8.98828125 -12.234375 8.98828125 C-11.904375 17.56828125 -11.574375 26.14828125 -11.234375 34.98828125 C-17.234375 36.98828125 -17.234375 36.98828125 -21.234375 36.98828125 C-21.234375 36.32828125 -21.234375 35.66828125 -21.234375 34.98828125 C-22.719375 34.49328125 -22.719375 34.49328125 -24.234375 33.98828125 C-24.564375 33.32828125 -24.894375 32.66828125 -25.234375 31.98828125 C-28.50709042 31.6221033 -29.80917058 31.65053022 -32.4375 33.73828125 C-33.45070313 34.85203125 -33.45070313 34.85203125 -34.484375 35.98828125 C-35.72441586 37.33088188 -36.97187091 38.66678164 -38.234375 39.98828125 C-38.564375 39.98828125 -38.894375 39.98828125 -39.234375 39.98828125 C-39.234375 25.13828125 -39.234375 10.28828125 -39.234375 -5.01171875 C-25.17392061 -9.02899143 -12.81397102 -6.83008833 0 0 Z " fill="#365183" transform="translate(118.234375,209.01171875)"/>
<path d="M0 0 C0.12672146 6.90491147 0.21431806 13.80952344 0.2746582 20.71533203 C0.29981062 23.06472988 0.33393663 25.41404941 0.37719727 27.76318359 C0.43781426 31.13919383 0.46620295 34.51417011 0.48828125 37.890625 C0.51408768 38.94179504 0.5398941 39.99296509 0.56648254 41.07598877 C0.56930004 48.39260705 0.56930004 48.39260705 -2.38989258 51.54980469 C-3.25122803 52.02836914 -4.11256348 52.50693359 -5 53 C-5.7425 53.763125 -6.485 54.52625 -7.25 55.3125 C-17.05418719 64.89386476 -17.05418719 64.89386476 -22.4375 65.1875 C-25.49187666 63.77205716 -25.75089379 63.02894854 -27 60 C-31.10581383 46.00981954 -29.22016184 32.03272005 -23 19 C-22.34 19 -21.68 19 -21 19 C-20.773125 18.29875 -20.54625 17.5975 -20.3125 16.875 C-17.39298201 10.47986535 -12.82868913 6.66991538 -7 3 C-6.01 3 -5.02 3 -4 3 C-4 2.34 -4 1.68 -4 1 C-1 0 -1 0 0 0 Z " fill="#324D7F" transform="translate(73,206)"/>
<path d="M0 0 C5.46113954 11.39716079 4.96890295 24.73815921 1.18359375 36.546875 C-2.67926104 47.21417276 -10.29738065 56.42390511 -20.1171875 62.2578125 C-22 63 -22 63 -25 63 C-26.16844103 59.4946769 -26.12952197 56.72152769 -26.1328125 53.0234375 C-26.13376923 52.33875397 -26.13472595 51.65407043 -26.13571167 50.94863892 C-26.13639192 49.49782215 -26.1345484 48.04700232 -26.13037109 46.59619141 C-26.12506988 44.40389925 -26.13029556 42.21181662 -26.13671875 40.01953125 C-26.15322265 20.57432782 -26.15322265 20.57432782 -23.36328125 16.765625 C-22.68652344 16.26546875 -22.00976562 15.7653125 -21.3125 15.25 C-20.59578125 14.69441406 -19.8790625 14.13882813 -19.140625 13.56640625 C-18.43421875 13.04949219 -17.7278125 12.53257812 -17 12 C-12.94833949 8.97384654 -12.94833949 8.97384654 -10 5 C-8.66666667 4.33333333 -7.33333333 3.66666667 -6 3 C-5.2265625 2.195625 -5.2265625 2.195625 -4.4375 1.375 C-3 0 -3 0 0 0 Z " fill="#365183" transform="translate(136,230)"/>
<path d="M0 0 C0.495 1.485 0.495 1.485 1 3 C0.29423828 3.59748047 0.29423828 3.59748047 -0.42578125 4.20703125 C-1.04839844 4.73683594 -1.67101562 5.26664063 -2.3125 5.8125 C-2.92738281 6.33457031 -3.54226562 6.85664063 -4.17578125 7.39453125 C-6.0143273 8.96301245 -6.0143273 8.96301245 -7.60546875 10.69921875 C-9 12 -9 12 -11 12 C-11.66 13.32 -12.32 14.64 -13 16 C-13.99 16 -14.98 16 -16 16 C-16.2475 16.58265625 -16.495 17.1653125 -16.75 17.765625 C-18.18525446 20.33114236 -19.77663013 21.83724798 -22 23.75 C-23.051875 24.67039063 -23.051875 24.67039063 -24.125 25.609375 C-26 27 -26 27 -28 27 C-28.495 28.485 -28.495 28.485 -29 30 C-29.66 30 -30.32 30 -31 30 C-31 30.66 -31 31.32 -31 32 C-32.65 32 -34.3 32 -36 32 C-36 32.66 -36 33.32 -36 34 C-36.99 34 -37.98 34 -39 34 C-39.268125 34.5775 -39.53625 35.155 -39.8125 35.75 C-41.01719859 38.0325868 -42.40798115 39.9737942 -44 42 C-47.24208567 41.64950425 -48.61527704 41.43778819 -50.8125 38.9375 C-51.204375 38.298125 -51.59625 37.65875 -52 37 C-59.99205344 37.63095159 -67.02328567 41.877102 -73 47 C-77.60714286 50 -77.60714286 50 -80 50 C-80 48.68 -80 47.36 -80 46 C-78.36209288 44.95355934 -76.68991979 43.9601817 -75 43 C-73.61767557 41.37373596 -72.28062485 39.7074998 -71 38 C-70 37 -69 36 -68 35 C-67.443125 34.2575 -66.88625 33.515 -66.3125 32.75 C-63.71767514 29.66426233 -60.86890791 27.15825937 -57.8046875 24.55078125 C-55.92288746 22.97318991 -55.92288746 22.97318991 -54 21 C-51.625 20.625 -51.625 20.625 -49 21 C-46.6875 22.875 -46.6875 22.875 -45 25 C-45 25.66 -45 26.32 -45 27 C-44.0925 26.67 -43.185 26.34 -42.25 26 C-39 25 -39 25 -35 25 C-34.34 23.68 -33.68 22.36 -33 21 C-32.34 21 -31.68 21 -31 21 C-30.505 19.515 -30.505 19.515 -30 18 C-30 18.66 -30 19.32 -30 20 C-29.34 20 -28.68 20 -28 20 C-27.67 19.34 -27.34 18.68 -27 18 C-24.27151919 14.85175291 -21.35507264 12.97364998 -17.70703125 10.9921875 C-15.8307701 9.96536793 -15.8307701 9.96536793 -13.75 8.125 C-9.50102804 4.84170348 -4.7440982 2.49252095 0 0 Z " fill="#B21C27" transform="translate(142,219)"/>
<path d="M0 0 C0.33 0 0.66 0 1 0 C1.27000917 6.60098484 1.4998427 13.20249648 1.7019043 19.8059082 C1.77535249 22.05167192 1.85796511 24.29715551 1.94995117 26.54223633 C2.08065835 29.77134639 2.17827192 33.00003279 2.26953125 36.23046875 C2.31721146 37.23272995 2.36489166 38.23499115 2.41401672 39.2676239 C2.56604712 46.27794778 2.56604712 46.27794778 -0.3527832 50.0012207 C-1.22636475 50.66081787 -2.09994629 51.32041504 -3 52 C-4.299375 53.36125 -4.299375 53.36125 -5.625 54.75 C-8 57 -8 57 -11 58 C-11 59.32 -11 60.64 -11 62 C-9.35048774 61.04801289 -7.70548492 60.08820855 -6.0625 59.125 C-5.14597656 58.59132813 -4.22945312 58.05765625 -3.28515625 57.5078125 C-0.89299704 56.20287437 -0.89299704 56.20287437 0 54 C2.28515625 52.9296875 2.28515625 52.9296875 5.0625 51.875 C5.98160156 51.52179688 6.90070313 51.16859375 7.84765625 50.8046875 C8.91306641 50.40636719 8.91306641 50.40636719 10 50 C10 50.66 10 51.32 10 52 C9.01 52.495 9.01 52.495 8 53 C7.98018066 53.72590332 7.96036133 54.45180664 7.93994141 55.19970703 C7.8443181 58.50848475 7.73478993 61.8166633 7.625 65.125 C7.5940625 66.26710938 7.563125 67.40921875 7.53125 68.5859375 C7.49257812 69.69453125 7.45390625 70.803125 7.4140625 71.9453125 C7.3826416 72.96125488 7.3512207 73.97719727 7.31884766 75.02392578 C6.97408555 78.24188142 6.12449188 80.9737359 5 84 C7.10830534 86.50740841 8.28092125 87.87271731 11.56542969 88.45410156 C12.97937012 88.42268066 12.97937012 88.42268066 14.421875 88.390625 C15.44667969 88.37773437 16.47148438 88.36484375 17.52734375 88.3515625 C18.59082031 88.31804687 19.65429688 88.28453125 20.75 88.25 C21.82894531 88.23195313 22.90789062 88.21390625 24.01953125 88.1953125 C26.68058788 88.14821415 29.33984254 88.082456 32 88 C31.67 88.66 31.34 89.32 31 90 C17.72091732 92.82533674 3.98240803 90.56765165 -7.5 83.3125 C-12.20321169 80.06523906 -16.11468485 76.17115577 -20 72 C-20.75925781 72.5775 -21.51851562 73.155 -22.30078125 73.75 C-23.29464844 74.4925 -24.28851563 75.235 -25.3125 76 C-26.29863281 76.7425 -27.28476562 77.485 -28.30078125 78.25 C-31 80 -31 80 -34 80 C-32.65365543 75.5937814 -30.80625626 73.56922298 -27 71 C-26.34 71 -25.68 71 -25 71 C-25 70.34 -25 69.68 -25 69 C-24.34 69 -23.68 69 -23 69 C-23.495 66.03 -23.495 66.03 -24 63 C-23.278125 63.07605469 -22.55625 63.15210938 -21.8125 63.23046875 C-18.16408821 62.93150167 -16.7743316 61.65767718 -14 59.3125 C-13.13246094 58.58417969 -12.26492187 57.85585938 -11.37109375 57.10546875 C-8.80154969 54.82378136 -6.3921077 52.46459581 -4 50 C-3.01 49.34 -2.02 48.68 -1 48 C-0.52454116 45.86668405 -0.52454116 45.86668405 -0.56762695 43.36669922 C-0.54783279 42.40585419 -0.52803864 41.44500916 -0.50764465 40.45504761 C-0.49805977 38.89561935 -0.49805977 38.89561935 -0.48828125 37.3046875 C-0.47033005 36.24210724 -0.45237885 35.17952698 -0.43388367 34.08474731 C-0.37957998 30.68153893 -0.34582037 27.27847236 -0.3125 23.875 C-0.27934468 21.57159476 -0.24485671 19.26820828 -0.20898438 16.96484375 C-0.12384223 11.31002301 -0.05557768 5.65518436 0 0 Z M1 57 C0.45086421 59.31090728 0.45086421 59.31090728 0.609375 61.88671875 C0.62226562 62.82451172 0.63515625 63.76230469 0.6484375 64.72851562 C0.68195313 65.70498047 0.71546875 66.68144531 0.75 67.6875 C0.76804688 68.67556641 0.78609375 69.66363281 0.8046875 70.68164062 C0.85184553 73.12206842 0.91763958 75.56054769 1 78 C2.65 78 4.3 78 6 78 C6 70.08 6 62.16 6 54 C3.82932708 54 2.50122734 55.61851964 1 57 Z " fill="#3C5380" transform="translate(73,207)"/>
<path d="M0 0 C0.33 0 0.66 0 1 0 C1.27000917 6.60098484 1.4998427 13.20249648 1.7019043 19.8059082 C1.77535249 22.05167192 1.85796511 24.29715551 1.94995117 26.54223633 C2.08065835 29.77134639 2.17827192 33.00003279 2.26953125 36.23046875 C2.31721146 37.23272995 2.36489166 38.23499115 2.41401672 39.2676239 C2.56604712 46.27794778 2.56604712 46.27794778 -0.3527832 50.0012207 C-1.22636475 50.66081787 -2.09994629 51.32041504 -3 52 C-4.299375 53.36125 -4.299375 53.36125 -5.625 54.75 C-8 57 -8 57 -11 58 C-11 59.32 -11 60.64 -11 62 C-9.35048774 61.04801289 -7.70548492 60.08820855 -6.0625 59.125 C-5.14597656 58.59132813 -4.22945312 58.05765625 -3.28515625 57.5078125 C-0.89299704 56.20287437 -0.89299704 56.20287437 0 54 C2.28515625 52.9296875 2.28515625 52.9296875 5.0625 51.875 C5.98160156 51.52179688 6.90070313 51.16859375 7.84765625 50.8046875 C8.91306641 50.40636719 8.91306641 50.40636719 10 50 C10 50.66 10 51.32 10 52 C9.01 52.495 9.01 52.495 8 53 C7.67 61.25 7.34 69.5 7 78 C6.67 78 6.34 78 6 78 C5.67 70.41 5.34 62.82 5 55 C1.81345218 56.61399973 1.81345218 56.61399973 1.56762695 59.15478516 C1.54144287 60.02409668 1.51525879 60.8934082 1.48828125 61.7890625 C1.45283203 62.73007812 1.41738281 63.67109375 1.38085938 64.640625 C1.35830078 65.62546875 1.33574219 66.6103125 1.3125 67.625 C1.27833984 68.61757813 1.24417969 69.61015625 1.20898438 70.6328125 C1.12634343 73.08842906 1.05724873 75.54368141 1 78 C0.67 78 0.34 78 0 78 C0 71.73 0 65.46 0 59 C-3.98716716 60.71981639 -3.98716716 60.71981639 -6.375 63.4375 C-9.15773583 66.15398021 -11.51222931 67.32318717 -15 69 C-19.4248873 71.77465511 -23.6863322 74.75785187 -27.875 77.875 C-31 80 -31 80 -34 80 C-32.65365543 75.5937814 -30.80625626 73.56922298 -27 71 C-26.34 71 -25.68 71 -25 71 C-25 70.34 -25 69.68 -25 69 C-24.34 69 -23.68 69 -23 69 C-23.495 66.03 -23.495 66.03 -24 63 C-23.278125 63.07605469 -22.55625 63.15210938 -21.8125 63.23046875 C-18.16408821 62.93150167 -16.7743316 61.65767718 -14 59.3125 C-13.13246094 58.58417969 -12.26492187 57.85585938 -11.37109375 57.10546875 C-8.80154969 54.82378136 -6.3921077 52.46459581 -4 50 C-3.01 49.34 -2.02 48.68 -1 48 C-0.52454116 45.86668405 -0.52454116 45.86668405 -0.56762695 43.36669922 C-0.54783279 42.40585419 -0.52803864 41.44500916 -0.50764465 40.45504761 C-0.49805977 38.89561935 -0.49805977 38.89561935 -0.48828125 37.3046875 C-0.47033005 36.24210724 -0.45237885 35.17952698 -0.43388367 34.08474731 C-0.37957998 30.68153893 -0.34582037 27.27847236 -0.3125 23.875 C-0.27934468 21.57159476 -0.24485671 19.26820828 -0.20898438 16.96484375 C-0.12384223 11.31002301 -0.05557768 5.65518436 0 0 Z " fill="#9F2532" transform="translate(73,207)"/>
<path d="M0 0 C0.33 0 0.66 0 1 0 C1.01030746 0.57168411 1.02061493 1.14336823 1.03123474 1.7323761 C1.14102071 7.78544718 1.25543552 13.83841924 1.37231445 19.89135742 C1.41512293 22.13808075 1.45682473 24.38482549 1.49731445 26.6315918 C1.74703771 40.44036291 2.15680001 54.21393875 3 68 C7.62 68 12.24 68 17 68 C16.89300781 66.21851563 16.78601563 64.43703125 16.67578125 62.6015625 C16.55388116 60.27608379 16.43283128 57.95056041 16.3125 55.625 C16.23966797 54.449375 16.16683594 53.27375 16.09179688 52.0625 C16.03701172 50.94101562 15.98222656 49.81953125 15.92578125 48.6640625 C15.86817627 47.62717285 15.81057129 46.5902832 15.7512207 45.52197266 C15.83331787 44.68972168 15.91541504 43.8574707 16 43 C19.72540662 40.51639559 21.63062973 40.7684133 26.07421875 40.8046875 C27.09996758 40.80893234 27.09996758 40.80893234 28.1464386 40.81326294 C30.32697165 40.82444316 32.50709145 40.84954309 34.6875 40.875 C36.16731177 40.88503262 37.64712999 40.89415798 39.12695312 40.90234375 C42.75158874 40.92267261 46.3753327 40.96182328 50 41 C50 50.9 50 60.8 50 71 C49.67 71 49.34 71 49 71 C49 61.76 49 52.52 49 43 C39.1 43 29.2 43 19 43 C19 52.24 19 61.48 19 71 C12.73 71 6.46 71 0 71 C0 47.57 0 24.14 0 0 Z " fill="#8190AC" transform="translate(162,215)"/>
<path d="M0 0 C0.495 1.485 0.495 1.485 1 3 C0.52949219 3.39832031 0.05898437 3.79664063 -0.42578125 4.20703125 C-1.04839844 4.73683594 -1.67101562 5.26664063 -2.3125 5.8125 C-2.92738281 6.33457031 -3.54226562 6.85664063 -4.17578125 7.39453125 C-6.0143273 8.96301245 -6.0143273 8.96301245 -7.60546875 10.69921875 C-9 12 -9 12 -11 12 C-11.66 13.32 -12.32 14.64 -13 16 C-13.99 16 -14.98 16 -16 16 C-16.2475 16.58265625 -16.495 17.1653125 -16.75 17.765625 C-18.18525446 20.33114236 -19.77663013 21.83724798 -22 23.75 C-22.70125 24.36359375 -23.4025 24.9771875 -24.125 25.609375 C-26 27 -26 27 -28 27 C-28.33 27.99 -28.66 28.98 -29 30 C-31.0625 30.6875 -31.0625 30.6875 -33 31 C-32.67 29.35 -32.34 27.7 -32 26 C-32.59167969 26.2165625 -33.18335937 26.433125 -33.79296875 26.65625 C-41.64147627 29.42179262 -41.64147627 29.42179262 -46 29 C-46.66 27.35 -47.32 25.7 -48 24 C-47.01 24.33 -46.02 24.66 -45 25 C-45 25.66 -45 26.32 -45 27 C-44.0925 26.67 -43.185 26.34 -42.25 26 C-39 25 -39 25 -35 25 C-34.34 23.68 -33.68 22.36 -33 21 C-32.34 21 -31.68 21 -31 21 C-30.67 20.01 -30.34 19.02 -30 18 C-30 18.66 -30 19.32 -30 20 C-29.34 20 -28.68 20 -28 20 C-27.67 19.34 -27.34 18.68 -27 18 C-24.27151919 14.85175291 -21.35507264 12.97364998 -17.70703125 10.9921875 C-15.8307701 9.96536793 -15.8307701 9.96536793 -13.75 8.125 C-9.50102804 4.84170348 -4.7440982 2.49252095 0 0 Z " fill="#8B2E3F" transform="translate(142,219)"/>
<path d="M0 0 C5.94 0 11.88 0 18 0 C18 23.43 18 46.86 18 71 C12.39 71 6.78 71 1 71 C1 70.34 1 69.68 1 69 C5.95 69 10.9 69 16 69 C16 46.56 16 24.12 16 1 C11.05 1 6.1 1 1 1 C1 6.61 1 12.22 1 18 C0.67 18 0.34 18 0 18 C0 12.06 0 6.12 0 0 Z " fill="#394A70" transform="translate(447,215)"/>
<path d="M0 0 C1.12067871 0.01047363 2.24135742 0.02094727 3.39599609 0.03173828 C5.21357422 0.04140625 5.21357422 0.04140625 7.06787109 0.05126953 C8.33888672 0.06802734 9.60990234 0.08478516 10.91943359 0.10205078 C12.19818359 0.11107422 13.47693359 0.12009766 14.79443359 0.12939453 C17.96128526 0.15302775 21.12776783 0.18597449 24.29443359 0.22705078 C23.96443359 1.21705078 23.63443359 2.20705078 23.29443359 3.22705078 C14.71443359 3.22705078 6.13443359 3.22705078 -2.70556641 3.22705078 C-2.70556641 10.81705078 -2.70556641 18.40705078 -2.70556641 26.22705078 C-8.64556641 26.22705078 -14.58556641 26.22705078 -20.70556641 26.22705078 C-20.70556641 18.30705078 -20.70556641 10.38705078 -20.70556641 2.22705078 C-20.37556641 2.22705078 -20.04556641 2.22705078 -19.70556641 2.22705078 C-19.70556641 9.81705078 -19.70556641 17.40705078 -19.70556641 25.22705078 C-14.42556641 25.22705078 -9.14556641 25.22705078 -3.70556641 25.22705078 C-3.87056641 23.65955078 -4.03556641 22.09205078 -4.20556641 20.47705078 C-4.74576666 14.44090006 -5.27826777 8.2743889 -4.70556641 2.22705078 C-2.70556641 0.22705078 -2.70556641 0.22705078 0 0 Z " fill="#596D8A" transform="translate(260.70556640625,259.77294921875)"/>
<path d="M0 0 C1.32 0.33 2.64 0.66 4 1 C3.34 1 2.68 1 2 1 C2 1.66 2 2.32 2 3 C1.34 3 0.68 3 0 3 C0 16.53 0 30.06 0 44 C-0.33 44 -0.66 44 -1 44 C-1.495 25.685 -1.495 25.685 -2 7 C-3.98 8.98 -5.96 10.96 -8 13 C-10.625 13.6875 -10.625 13.6875 -13 13 C-15.3125 10.6875 -15.3125 10.6875 -17 8 C-17 7.01 -17 6.02 -17 5 C-17.99 4.67 -18.98 4.34 -20 4 C-17.6875 4.25 -17.6875 4.25 -15 5 C-13.9739266 6.31337396 -12.97272675 7.64664105 -12 9 C-9.90584196 9.79623822 -9.90584196 9.79623822 -8 10 C-7.731875 9.4225 -7.46375 8.845 -7.1875 8.25 C-5.9611378 5.92636635 -4.75156566 3.96175354 -3 2 C-2.01 2 -1.02 2 0 2 C0 1.34 0 0.68 0 0 Z " fill="#746985" transform="translate(106,251)"/>
<path d="M0 0 C0.33 0 0.66 0 1 0 C1.27000917 6.60098484 1.4998427 13.20249648 1.7019043 19.8059082 C1.77535249 22.05167192 1.85796511 24.29715551 1.94995117 26.54223633 C2.08065835 29.77134639 2.17827192 33.00003279 2.26953125 36.23046875 C2.31721146 37.23272995 2.36489166 38.23499115 2.41401672 39.2676239 C2.56604226 46.27772354 2.56604226 46.27772354 -0.36523438 50.01806641 C-1.23470703 50.67210449 -2.10417969 51.32614258 -3 52 C-3.80050781 52.81855469 -4.60101563 53.63710938 -5.42578125 54.48046875 C-8.24133286 57.23620591 -11.16427106 59.79002839 -14.1875 62.3125 C-14.72052734 62.76689453 -15.25355469 63.22128906 -15.80273438 63.68945312 C-19.76045583 67 -19.76045583 67 -22 67 C-22 67.99 -22 68.98 -22 70 C-22.99 69.67 -23.98 69.34 -25 69 C-24.34 69 -23.68 69 -23 69 C-23.495 66.03 -23.495 66.03 -24 63 C-23.278125 63.07605469 -22.55625 63.15210938 -21.8125 63.23046875 C-18.16408821 62.93150167 -16.7743316 61.65767718 -14 59.3125 C-13.13246094 58.58417969 -12.26492187 57.85585938 -11.37109375 57.10546875 C-8.80154969 54.82378136 -6.3921077 52.46459581 -4 50 C-3.01 49.34 -2.02 48.68 -1 48 C-0.52454116 45.86668405 -0.52454116 45.86668405 -0.56762695 43.36669922 C-0.54783279 42.40585419 -0.52803864 41.44500916 -0.50764465 40.45504761 C-0.49805977 38.89561935 -0.49805977 38.89561935 -0.48828125 37.3046875 C-0.47033005 36.24210724 -0.45237885 35.17952698 -0.43388367 34.08474731 C-0.37957998 30.68153893 -0.34582037 27.27847236 -0.3125 23.875 C-0.27934468 21.57159476 -0.24485671 19.26820828 -0.20898438 16.96484375 C-0.12384223 11.31002301 -0.05557768 5.65518436 0 0 Z " fill="#846D83" transform="translate(73,207)"/>
<path d="M0 0 C0.33 0 0.66 0 1 0 C1.19582583 4.31216481 1.38027074 8.6247409 1.5625 12.9375 C1.61857422 14.16919922 1.67464844 15.40089844 1.73242188 16.66992188 C1.78076172 17.83974609 1.82910156 19.00957031 1.87890625 20.21484375 C1.9260376 21.29886475 1.97316895 22.38288574 2.02172852 23.49975586 C2 26 2 26 1 27 C-1.21855264 27.08783542 -3.43988496 27.10694609 -5.66015625 27.09765625 C-6.65685585 27.09553383 -6.65685585 27.09553383 -7.6736908 27.09336853 C-9.80333899 27.08775518 -11.93288339 27.07520054 -14.0625 27.0625 C-15.50325369 27.05748671 -16.94400903 27.05292351 -18.38476562 27.04882812 C-21.92321102 27.03778145 -25.46159539 27.02050792 -29 27 C-29 26.34 -29 25.68 -29 25 C-19.43 25 -9.86 25 0 25 C0 16.75 0 8.5 0 0 Z " fill="#657A97" transform="translate(211,215)"/>
<path d="M0 0 C0.33 0 0.66 0 1 0 C1 10.89 1 21.78 1 33 C2.65 33 4.3 33 6 33 C6.103125 32.360625 6.20625 31.72125 6.3125 31.0625 C6.539375 30.381875 6.76625 29.70125 7 29 C7.99 28.67 8.98 28.34 10 28 C10 28.99 10 29.98 10 31 C10.99 30.01 11.98 29.02 13 28 C13.33 29.65 13.66 31.3 14 33 C13.154375 32.855625 12.30875 32.71125 11.4375 32.5625 C6.87712864 33.1429109 5.40485122 35.14559599 2.41796875 38.46875 C1.95003906 38.9740625 1.48210937 39.479375 1 40 C0.67 40 0.34 40 0 40 C0 26.8 0 13.6 0 0 Z " fill="#344B75" transform="translate(80,208)"/>
<path d="M0 0 C0.33 0.66 0.66 1.32 1 2 C0.01 2.495 0.01 2.495 -1 3 C-1.33 11.25 -1.66 19.5 -2 28 C-2.33 28 -2.66 28 -3 28 C-3.33 20.41 -3.66 12.82 -4 5 C-7.18654782 6.61399973 -7.18654782 6.61399973 -7.43237305 9.15478516 C-7.45855713 10.02409668 -7.48474121 10.8934082 -7.51171875 11.7890625 C-7.54716797 12.73007812 -7.58261719 13.67109375 -7.61914062 14.640625 C-7.65297852 16.11789062 -7.65297852 16.11789062 -7.6875 17.625 C-7.72166016 18.61757813 -7.75582031 19.61015625 -7.79101562 20.6328125 C-7.87365657 23.08842906 -7.94275127 25.54368141 -8 28 C-8.33 28 -8.66 28 -9 28 C-9 21.73 -9 15.46 -9 9 C-13.455 10.485 -13.455 10.485 -18 12 C-16.57092175 9.14184349 -14.3584734 8.4503467 -11.59375 7 C-9.82455659 6.08240231 -9.82455659 6.08240231 -9 4 C-6.93359375 2.9296875 -6.93359375 2.9296875 -4.4375 1.875 C-3.61121094 1.52179688 -2.78492187 1.16859375 -1.93359375 0.8046875 C-0.97646484 0.40636719 -0.97646484 0.40636719 0 0 Z " fill="#8E697C" transform="translate(82,257)"/>
<path d="M0 0 C2.97 0 5.94 0 9 0 C8.67 1.32 8.34 2.64 8 4 C7.7856066 5.74690919 7.59892347 7.4974023 7.4375 9.25 C7.35371094 10.14203125 7.26992187 11.0340625 7.18359375 11.953125 C7.12300781 12.62859375 7.06242187 13.3040625 7 14 C6.67 14 6.34 14 6 14 C6 9.71 6 5.42 6 1 C4.68 1 3.36 1 2 1 C2.33 9.58 2.66 18.16 3 27 C2.01 27 1.02 27 0 27 C0 18.09 0 9.18 0 0 Z " fill="#5F6B95" transform="translate(104,217)"/>
<path d="M0 0 C0.99 0 1.98 0 3 0 C4.6484375 1.7578125 4.6484375 1.7578125 6.375 4.125 C8.48110899 6.96891788 10.59025083 9.72682145 12.9375 12.375 C15 15 15 15 15 18 C15.99 18.33 16.98 18.66 18 19 C17.34 19.66 16.68 20.32 16 21 C16 20.34 16 19.68 16 19 C15.01 19 14.02 19 13 19 C12.67 18.01 12.34 17.02 12 16 C11.01 16 10.02 16 9 16 C8.7525 15.195625 8.505 14.39125 8.25 13.5625 C7.27761141 10.828919 7.27761141 10.828919 4.875 10.1875 C4.25625 10.125625 3.6375 10.06375 3 10 C2.690625 8.906875 2.38125 7.81375 2.0625 6.6875 C1.41662103 4.44592006 0.7376883 2.2130649 0 0 Z " fill="#4B5D8A" transform="translate(416,218)"/>
<path d="M0 0 C0.33 0.66 0.66 1.32 1 2 C1.66 2 2.32 2 3 2 C3.33 1.34 3.66 0.68 4 0 C4 0.99 4 1.98 4 3 C3.01 3.495 3.01 3.495 2 4 C1.27840576 5.64363134 0.60648579 7.31050386 0 9 C0.99 9 1.98 9 3 9 C2.67 9.99 2.34 10.98 2 12 C-0.0625 12.6875 -0.0625 12.6875 -2 13 C-1.67 11.35 -1.34 9.7 -1 8 C-1.59167969 8.2165625 -2.18335937 8.433125 -2.79296875 8.65625 C-10.64147627 11.42179262 -10.64147627 11.42179262 -15 11 C-15.66 9.35 -16.32 7.7 -17 6 C-16.01 6.33 -15.02 6.66 -14 7 C-14 7.66 -14 8.32 -14 9 C-12.63875 8.505 -12.63875 8.505 -11.25 8 C-8 7 -8 7 -4 7 C-3.34 5.68 -2.68 4.36 -2 3 C-1.34 3 -0.68 3 0 3 C0 2.01 0 1.02 0 0 Z " fill="#9D2433" transform="translate(111,237)"/>
<path d="M0 0 C0.33 0.99 0.66 1.98 1 3 C0.52949219 3.39832031 0.05898437 3.79664063 -0.42578125 4.20703125 C-1.04839844 4.73683594 -1.67101562 5.26664063 -2.3125 5.8125 C-2.92738281 6.33457031 -3.54226562 6.85664063 -4.17578125 7.39453125 C-6.0143273 8.96301245 -6.0143273 8.96301245 -7.60546875 10.69921875 C-9 12 -9 12 -11 12 C-11.66 13.32 -12.32 14.64 -13 16 C-13 13 -13 13 -12 10 C-13.32 10.33 -14.64 10.66 -16 11 C-11.55873655 5.79300147 -6.04125446 3.07881795 0 0 Z " fill="#884554" transform="translate(142,219)"/>
<path d="M0 0 C0.66 0.33 1.32 0.66 2 1 C0.5484451 2.67257355 -0.91144409 4.33791758 -2.375 6 C-3.18710938 6.928125 -3.99921875 7.85625 -4.8359375 8.8125 C-5.55007812 9.534375 -6.26421875 10.25625 -7 11 C-7.66 11 -8.32 11 -9 11 C-9 24.2 -9 37.4 -9 51 C-9.33 51 -9.66 51 -10 51 C-10.34192748 45.29065061 -10.62905017 39.58207333 -10.86669922 33.86743164 C-10.95502957 31.92594336 -11.05804501 29.98506342 -11.17626953 28.04516602 C-12.14603094 11.88662012 -12.14603094 11.88662012 -9.3203125 7.23486328 C-7.28842551 5.46673085 -5.36761455 4.261049 -3 3 C-1.28692394 1.43907303 -1.28692394 1.43907303 0 0 Z " fill="#223A69" transform="translate(122,239)"/>
<path d="M0 0 C2.31 0 4.62 0 7 0 C7 5.61 7 11.22 7 17 C-4.22 17 -15.44 17 -27 17 C-27 15.02 -27 13.04 -27 11 C-25.68 11.33 -24.36 11.66 -23 12 C-23.33 12.99 -23.66 13.98 -24 15 C-14.1 15.33 -4.2 15.66 6 16 C6 11.05 6 6.1 6 1 C4.02 1 2.04 1 0 1 C0 0.67 0 0.34 0 0 Z " fill="#5D6C8B" transform="translate(380,269)"/>
<path d="M0 0 C0.66 2.31 1.32 4.62 2 7 C1.34 7 0.68 7 0 7 C-0.33 7.99 -0.66 8.98 -1 10 C-3.31 7.69 -5.62 5.38 -8 3 C-7.67 2.01 -7.34 1.02 -7 0 C-4.3333581 -1.33332095 -2.83319697 -0.67102033 0 0 Z " fill="#3A5481" transform="translate(62,277)"/>
<path d="M0 0 C0.33 0 0.66 0 1 0 C2.97709924 21.53435115 2.97709924 21.53435115 -2 29 C-1.85991329 25.4789137 -1.71189018 21.95820288 -1.5625 18.4375 C-1.52318359 17.44685547 -1.48386719 16.45621094 -1.44335938 15.43554688 C-1.21827654 10.22401363 -0.85894761 5.14646762 0 0 Z " fill="#5B6991" transform="translate(138,238)"/>
<path d="M0 0 C2.125 0.9375 2.125 0.9375 4 2 C2.730447 2.64834654 1.45930294 3.29357815 0.1875 3.9375 C-0.52019531 4.29714844 -1.22789062 4.65679687 -1.95703125 5.02734375 C-4 6 -4 6 -7 7 C-7.67156616 8.93618425 -7.67156616 8.93618425 -8 11 C-8.33 11.66 -8.66 12.32 -9 13 C-9.99 12.67 -10.98 12.34 -12 12 C-12.6875 9.9375 -12.6875 9.9375 -13 8 C-12.195625 7.54625 -11.39125 7.0925 -10.5625 6.625 C-7.91143428 5.25274335 -7.91143428 5.25274335 -7 3 C-5.35 3 -3.7 3 -2 3 C-2 2.34 -2 1.68 -2 1 C-1.34 0.67 -0.68 0.34 0 0 Z " fill="#4B5F83" transform="translate(343,230)"/>
<path d="M0 0 C1.65 0.33 3.3 0.66 5 1 C4.34 3.31 3.68 5.62 3 8 C1.68 8.33 0.36 8.66 -1 9 C-1 8.01 -1 7.02 -1 6 C-1.99 5.67 -2.98 5.34 -4 5 C-4 4.01 -4 3.02 -4 2 C-3.01 2 -2.02 2 -1 2 C-0.67 1.34 -0.34 0.68 0 0 Z " fill="#B81921" transform="translate(96,251)"/>
<path d="M0 0 C0.66 1.32 1.32 2.64 2 4 C1.34 4 0.68 4 0 4 C0 17.2 0 30.4 0 44 C-0.66 43.67 -1.32 43.34 -2 43 C-1.8820767 37.03672101 -1.757853 31.07362002 -1.62768555 25.1105957 C-1.58426759 23.08035896 -1.54259774 21.05008408 -1.50268555 19.01977539 C-1.44514854 16.10811849 -1.38140722 13.19665486 -1.31640625 10.28515625 C-1.29969376 9.3716188 -1.28298126 8.45808136 -1.26576233 7.51686096 C-1.11387171 1.11387171 -1.11387171 1.11387171 0 0 Z " fill="#243B65" transform="translate(416,241)"/>
<path d="M0 0 C0 3 0 3 -1.4609375 4.60546875 C-2.09257813 5.12753906 -2.72421875 5.64960938 -3.375 6.1875 C-4.00148438 6.71730469 -4.62796875 7.24710938 -5.2734375 7.79296875 C-7 9 -7 9 -9 9 C-9 9.66 -9 10.32 -9 11 C-9.99 11 -10.98 11 -12 11 C-11.34 9.02 -10.68 7.04 -10 5 C-9.34 5 -8.68 5 -8 5 C-8 4.34 -8 3.68 -8 3 C-2.25 0 -2.25 0 0 0 Z " fill="#AB1E2A" transform="translate(123,235)"/>
<path d="M0 0 C0 0.99 0 1.98 0 3 C-1.17369141 2.98259766 -1.17369141 2.98259766 -2.37109375 2.96484375 C-3.38300781 2.95582031 -4.39492188 2.94679687 -5.4375 2.9375 C-6.95150391 2.92009766 -6.95150391 2.92009766 -8.49609375 2.90234375 C-10.94021067 2.71387324 -10.94021067 2.71387324 -12 4 C-13.66617115 4.04063832 -15.33388095 4.042721 -17 4 C-17.33 3.34 -17.66 2.68 -18 2 C-11.84629161 0.176679 -6.40353322 -0.2361959 0 0 Z " fill="#5D6C8F" transform="translate(356,213)"/>
<path d="M0 0 C0.99 0.495 0.99 0.495 2 1 C2 5.95 2 10.9 2 16 C3.98 15.34 5.96 14.68 8 14 C6.37660195 15.70884005 4.70680947 17.37446717 3 19 C2.34 19 1.68 19 1 19 C-0.65497356 15.69005287 -0.10084335 12.00877 -0.0625 8.375 C-0.05798828 7.57320312 -0.05347656 6.77140625 -0.04882812 5.9453125 C-0.03703168 3.96350994 -0.01909605 1.98174567 0 0 Z " fill="#333A5F" transform="translate(111,220)"/>
<path d="M0 0 C0.66 0.33 1.32 0.66 2 1 C3.67654729 0.72057545 5.34608154 0.39171753 7 0 C3.61220856 3.58707329 0.26454859 6.49689539 -4 9 C-4.99 9 -5.98 9 -7 9 C-5.64978174 4.58110387 -3.73884332 2.65654657 0 0 Z " fill="#AC5D64" transform="translate(46,278)"/>
<path d="M0 0 C2.45103548 0.98041419 3.76758786 1.6513818 5.25 3.875 C6 6 6 6 6 10 C7.32 10.33 8.64 10.66 10 11 C9.34 12.32 8.68 13.64 8 15 C6.46623771 13.07158542 4.9482818 11.13378206 3.4375 9.1875 C2.78104492 8.36668945 2.78104492 8.36668945 2.11132812 7.52929688 C0.99411861 6.0778042 -0.01128867 4.54189429 -1 3 C-0.67 2.01 -0.34 1.02 0 0 Z " fill="#59688A" transform="translate(432,262)"/>
<path d="M0 0 C0.66 0 1.32 0 2 0 C2 0.66 2 1.32 2 2 C4.21936052 3.15077953 6.30252735 4.09849728 8.6875 4.875 C11 6 11 6 11.9375 8 C11.958125 8.66 11.97875 9.32 12 10 C11.34 10.66 10.68 11.32 10 12 C10 11.01 10 10.02 10 9 C6.41247258 7.13448574 2.72187807 5.57464072 -1 4 C-0.67 2.68 -0.34 1.36 0 0 Z " fill="#546585" transform="translate(355,228)"/>
<path d="M0 0 C6.03280791 1.6166348 9.950809 3.16709462 14 8 C12.68 8.33 11.36 8.66 10 9 C9.34 8.01 8.68 7.02 8 6 C5.43717258 5.27034634 5.43717258 5.27034634 3 5 C3 4.34 3 3.68 3 3 C2.01 2.67 1.02 2.34 0 2 C0 1.34 0 0.68 0 0 Z " fill="#506485" transform="translate(361,215)"/>
<path d="M0 0 C0.66 0 1.32 0 2 0 C2 0.99 2 1.98 2 3 C2.99 2.01 3.98 1.02 5 0 C5.33 1.65 5.66 3.3 6 5 C5.154375 4.855625 4.30875 4.71125 3.4375 4.5625 C-1.60979149 5.20488255 -3.78137926 8.26716175 -7 12 C-7.33 11.01 -7.66 10.02 -8 9 C-6.8553125 8.1646875 -6.8553125 8.1646875 -5.6875 7.3125 C-3.03204493 5.02757355 -1.7420893 2.9864388 0 0 Z " fill="#4B4165" transform="translate(88,236)"/>
<path d="M0 0 C0.66 0.33 1.32 0.66 2 1 C-0.4520758 5.75991185 -3.90775833 9.57829431 -8 13 C-8.66 13 -9.32 13 -10 13 C-10 10 -10 10 -8.1875 7.8125 C-6 6 -6 6 -3 6 C-3 5.01 -3 4.02 -3 3 C-2.01 3 -1.02 3 0 3 C0 2.01 0 1.02 0 0 Z " fill="#5D6C88" transform="translate(130,275)"/>
<path d="M0 0 C0 3.86661175 -1.13700022 4.67134959 -3.6875 7.5 C-4.71423828 8.66015625 -4.71423828 8.66015625 -5.76171875 9.84375 C-8.02452163 12.02362293 -10.25120735 13.49803274 -13 15 C-11.60580513 10.33868583 -8.97151638 7.76827228 -5.375 4.6875 C-4.859375 4.23310547 -4.34375 3.77871094 -3.8125 3.31054688 C-2.5487557 2.19891994 -1.27532824 1.0983178 0 0 Z " fill="#9D3241" transform="translate(87,241)"/>
<path d="M0 0 C0.66 0 1.32 0 2 0 C2 0.66 2 1.32 2 2 C0.05017465 3.40568804 -1.95950578 4.7295036 -4 6 C-4.886875 6.5775 -5.77375 7.155 -6.6875 7.75 C-9 9 -9 9 -12 9 C-11.67 7.68 -11.34 6.36 -11 5 C-8.98113909 4.49528477 -6.98580888 3.9974198 -4.9375 3.625 C-2.62638525 2.87947911 -1.6557564 1.73101805 0 0 Z " fill="#753B56" transform="translate(66,268)"/>
<path d="M0 0 C0.66 0.33 1.32 0.66 2 1 C0.5484451 2.67257355 -0.91144409 4.33791758 -2.375 6 C-3.18710938 6.928125 -3.99921875 7.85625 -4.8359375 8.8125 C-5.55007812 9.534375 -6.26421875 10.25625 -7 11 C-7.66 11 -8.32 11 -9 11 C-9 11.99 -9 12.98 -9 14 C-9.66 14 -10.32 14 -11 14 C-11 10 -11 10 -9.35546875 8.18359375 C-8.64003906 7.60738281 -7.92460938 7.03117188 -7.1875 6.4375 C-4.67043513 4.37891689 -2.25768992 2.34315452 0 0 Z " fill="#4B4165" transform="translate(122,239)"/>
<path d="M0 0 C-3.45779423 2.30519615 -4.50729028 2.19009046 -8.54296875 1.9765625 C-10.15268555 1.89921875 -10.15268555 1.89921875 -11.79492188 1.8203125 C-12.91447266 1.75585938 -14.03402344 1.69140625 -15.1875 1.625 C-16.31865234 1.56828125 -17.44980469 1.5115625 -18.61523438 1.453125 C-21.41079047 1.31157786 -24.20545841 1.16015835 -27 1 C-27 0.67 -27 0.34 -27 0 C-23.25044125 -0.19713345 -19.50034696 -0.3810316 -15.75 -0.5625 C-14.68652344 -0.61857422 -13.62304688 -0.67464844 -12.52734375 -0.73242188 C-10.99013672 -0.80493164 -10.99013672 -0.80493164 -9.421875 -0.87890625 C-8.47924805 -0.9260376 -7.53662109 -0.97316895 -6.56542969 -1.02172852 C-4.17740544 -1.00150258 -2.27325608 -0.69460602 0 0 Z " fill="#4D5F81" transform="translate(285,246)"/>
<path d="M0 0 C-0.1875 1.875 -0.1875 1.875 -1 4 C-4.37823976 5.87679987 -7.17632299 6.21849583 -11 6 C-7.57865372 2.33427184 -5.14341528 0 0 0 Z " fill="#4F6387" transform="translate(338,216)"/>
<path d="M0 0 C1.9375 0.375 1.9375 0.375 4 1 C5.53266582 4.06533164 5.10276471 7.26754272 5.0625 10.625 C5.05798828 11.33140625 5.05347656 12.0378125 5.04882812 12.765625 C5.03703875 14.51045275 5.01910324 16.255237 5 18 C4.67 18 4.34 18 4 18 C4 13.38 4 8.76 4 4 C2.35 3.67 0.7 3.34 -1 3 C-0.67 2.01 -0.34 1.02 0 0 Z " fill="#636E8F" transform="translate(343,267)"/>
<path d="M0 0 C0.99 0.66 1.98 1.32 3 2 C1.6106395 5.47340125 0.38754843 6.51794756 -3 8 C-3.66 8.66 -4.32 9.32 -5 10 C-5 9.34 -5 8.68 -5 8 C-5.66 7.67 -6.32 7.34 -7 7 C-5.47005208 5.76302083 -3.94010417 4.52604167 -2.41015625 3.2890625 C-0.86733563 2.0333609 -0.86733563 2.0333609 0 0 Z " fill="#4E5E85" transform="translate(365,259)"/>
<path d="M0 0 C0.66 0 1.32 0 2 0 C2.33 0.99 2.66 1.98 3 3 C0.6870518 5.3129482 -0.47904875 5.49580975 -3.625 6.125 C-4.44226563 6.29257813 -5.25953125 6.46015625 -6.1015625 6.6328125 C-7.04128906 6.81457031 -7.04128906 6.81457031 -8 7 C-5.6875 4.5 -5.6875 4.5 -3 2 C-2.01 2 -1.02 2 0 2 C0 1.34 0 0.68 0 0 Z " fill="#5B6A8B" transform="translate(69,207)"/>
<path d="M0 0 C0.66 0.33 1.32 0.66 2 1 C1.2884375 1.61875 1.2884375 1.61875 0.5625 2.25 C-1.16266518 4.182185 -1.56584875 5.48192275 -2 8 C-4.31 8.66 -6.62 9.32 -9 10 C-8.67 9.01 -8.34 8.02 -8 7 C-7.01 7 -6.02 7 -5 7 C-5 6.01 -5 5.02 -5 4 C-2.5 1.8125 -2.5 1.8125 0 0 Z " fill="#972E39" transform="translate(56,270)"/>
<path d="M0 0 C1.32 0.33 2.64 0.66 4 1 C3.34 1 2.68 1 2 1 C2 1.66 2 2.32 2 3 C1.34 3 0.68 3 0 3 C0 3.66 0 4.32 0 5 C-1.63064764 6.05771739 -3.30280873 7.05273046 -5 8 C-5.99 8.66 -6.98 9.32 -8 10 C-6.63029745 7.04987143 -5.17390875 4.4347778 -3 2 C-2.01 2 -1.02 2 0 2 C0 1.34 0 0.68 0 0 Z " fill="#9C4652" transform="translate(106,251)"/>
<path d="M0 0 C0.66 0 1.32 0 2 0 C0.65365543 4.4062186 -1.19374374 6.43077702 -5 9 C-5.66 9 -6.32 9 -7 9 C-7 8.01 -7 7.02 -7 6 C-6.01 6 -5.02 6 -4 6 C-4 5.34 -4 4.68 -4 4 C-3.34 4 -2.68 4 -2 4 C-2 3.34 -2 2.68 -2 2 C-1.34 2 -0.68 2 0 2 C0 1.34 0 0.68 0 0 Z " fill="#59678C" transform="translate(301,250)"/>
<path d="M0 0 C2.86724686 0.57344937 3.8614515 0.8614515 6 3 C6 3.99 6 4.98 6 6 C6.99 6.33 7.98 6.66 9 7 C8.34 7.66 7.68 8.32 7 9 C7 8.34 7 7.68 7 7 C6.01 7 5.02 7 4 7 C3.67 6.01 3.34 5.02 3 4 C2.01 4 1.02 4 0 4 C0 2.68 0 1.36 0 0 Z " fill="#667595" transform="translate(425,230)"/>
<path d="M0 0 C2 6.625 2 6.625 2 10 C1.01 10 0.02 10 -1 10 C-1.66 7.03 -2.32 4.06 -3 1 C-1 0 -1 0 0 0 Z " fill="#61728C" transform="translate(333,251)"/>
<path d="M0 0 C0.99 0 1.98 0 3 0 C4.38671875 1.75 4.38671875 1.75 5.6875 4 C6.12449219 4.7425 6.56148438 5.485 7.01171875 6.25 C7.33785156 6.8275 7.66398437 7.405 8 8 C7.01 8 6.02 8 5 8 C5 7.34 5 6.68 5 6 C4.01 6 3.02 6 2 6 C0 3 0 3 0 0 Z " fill="#57688B" transform="translate(416,218)"/>
<path d="M0 0 C0.33 0.99 0.66 1.98 1 3 C-0.65 4.32 -2.3 5.64 -4 7 C-4 6.34 -4 5.68 -4 5 C-5.32 5.33 -6.64 5.66 -8 6 C-5.51047079 3.33264727 -3.36591866 1.44253657 0 0 Z " fill="#BB898F" transform="translate(142,219)"/>
<path d="M0 0 C0.99 0.33 1.98 0.66 3 1 C3 1.66 3 2.32 3 3 C5.64 2.34 8.28 1.68 11 1 C7.67692308 4.93846154 7.67692308 4.93846154 4.25 5.25 C3.5075 5.1675 2.765 5.085 2 5 C1.34 3.35 0.68 1.7 0 0 Z " fill="#633C58" transform="translate(94,243)"/>
<path d="M0 0 C0.33 0.66 0.66 1.32 1 2 C1.66 2 2.32 2 3 2 C3.33 1.34 3.66 0.68 4 0 C4 0.99 4 1.98 4 3 C-0.22857143 7 -0.22857143 7 -4 7 C-3.34 5.68 -2.68 4.36 -2 3 C-1.34 3 -0.68 3 0 3 C0 2.01 0 1.02 0 0 Z " fill="#AB4F62" transform="translate(111,237)"/>
<path d="M0 0 C2.35171131 0.59861742 4.6859378 1.26924352 7 2 C7.33 2.66 7.66 3.32 8 4 C5.36 4.33 2.72 4.66 0 5 C0 3.35 0 1.7 0 0 Z " fill="#324678" transform="translate(345,226)"/>
<path d="M0 0 C0 0.99 0 1.98 0 3 C-1.98 3.99 -1.98 3.99 -4 5 C-4 5.99 -4 6.98 -4 8 C-4.99 7.67 -5.98 7.34 -7 7 C-6.34 7 -5.68 7 -5 7 C-5.33 5.02 -5.66 3.04 -6 1 C-4.7934375 1.0309375 -4.7934375 1.0309375 -3.5625 1.0625 C-1.06645115 1.29633621 -1.06645115 1.29633621 0 0 Z " fill="#80657A" transform="translate(55,269)"/>
<path d="M0 0 C0.66 0.33 1.32 0.66 2 1 C-1.78756477 4.61139896 -1.78756477 4.61139896 -4 6 C-6.875 5.8125 -6.875 5.8125 -9 5 C-8.67 4.34 -8.34 3.68 -8 3 C-5.67793475 2.29508733 -3.34406932 1.62787571 -1 1 C-0.67 0.67 -0.34 0.34 0 0 Z " fill="#3C4771" transform="translate(58,265)"/>
<path d="M0 0 C1.98 1.65 3.96 3.3 6 5 C5.34 6.32 4.68 7.64 4 9 C3.34 9 2.68 9 2 9 C1.34 6.03 0.68 3.06 0 0 Z " fill="#5F7699" transform="translate(296,218)"/>
<path d="M0 0 C2.97 0 5.94 0 9 0 C5.55549263 2.29633824 3.06187717 2.54016485 -1 3 C-0.67 2.01 -0.34 1.02 0 0 Z " fill="#596C89" transform="translate(285,259)"/>
<path d="M0 0 C1.65 0.33 3.3 0.66 5 1 C3.1875 3 3.1875 3 1 5 C0.01 5 -0.98 5 -2 5 C-1.34 3.35 -0.68 1.7 0 0 Z " fill="#A56D78" transform="translate(41,282)"/>
<path d="M0 0 C0.99 0.33 1.98 0.66 3 1 C2.40138258 3.35171131 1.73075648 5.6859378 1 8 C0.01 8.495 0.01 8.495 -1 9 C-0.67 6.03 -0.34 3.06 0 0 Z " fill="#546685" transform="translate(133,266)"/>
<path d="M0 0 C1.32 0 2.64 0 4 0 C4 2 4 2 2.75 3.6875 C2.1725 4.120625 1.595 4.55375 1 5 C-1.1875 4.6875 -1.1875 4.6875 -3 4 C-1.75 2 -1.75 2 0 0 Z " fill="#BA171B" transform="translate(76,254)"/>
<path d="M0 0 C1.78409802 3.06246747 2.22880021 5.22079273 2.125 8.75 C2.10695313 9.54921875 2.08890625 10.3484375 2.0703125 11.171875 C2.04710937 11.77515625 2.02390625 12.3784375 2 13 C1.67 13 1.34 13 1 13 C0.7834375 11.63875 0.7834375 11.63875 0.5625 10.25 C0.08635504 7.15495103 0.08635504 7.15495103 -0.625 4.8125 C-1 3 -1 3 0 0 Z " fill="#717BB5" transform="translate(386,241)"/>
<path d="M0 0 C1.32 0.33 2.64 0.66 4 1 C3.34 1 2.68 1 2 1 C1.67 2.65 1.34 4.3 1 6 C0.01 6 -0.98 6 -2 6 C-1.34 4.02 -0.68 2.04 0 0 Z " fill="#B31923" transform="translate(113,240)"/>
<path d="M0 0 C2 3 2 3 2 5 C-1.465 6.485 -1.465 6.485 -5 8 C-5 7.34 -5 6.68 -5 6 C-4.34 6 -3.68 6 -3 6 C-2.690625 5.195625 -2.38125 4.39125 -2.0625 3.5625 C-1 1 -1 1 0 0 Z " fill="#5A6F8F" transform="translate(55,219)"/>
<path d="M0 0 C0.99 0.33 1.98 0.66 3 1 C2.34 4.3 1.68 7.6 1 11 C0.67 11 0.34 11 0 11 C0 7.37 0 3.74 0 0 Z " fill="#2F466B" transform="translate(45,241)"/>
<path d="M0 0 C1.65 0 3.3 0 5 0 C5.66 2.31 6.32 4.62 7 7 C6.01 6.67 5.02 6.34 4 6 C4 4.35 4 2.7 4 1 C2.68 0.67 1.36 0.34 0 0 Z " fill="#892D3D" transform="translate(88,240)"/>
<path d="M0 0 C3.2542015 2.83430453 4.5206753 4.68607774 5 9 C4.34 9 3.68 9 3 9 C2.01 6.03 1.02 3.06 0 0 Z " fill="#647694" transform="translate(381,230)"/>
<path d="M0 0 C1 2 1 2 0.375 4 C-1.39265071 6.57112831 -3.07589059 7.07659703 -6 8 C-4.55746343 4.63408134 -2.66735273 2.48952921 0 0 Z " fill="#839AAC" transform="translate(325,222)"/>
<path d="M0 0 C0.66 0.33 1.32 0.66 2 1 C1.67 2.98 1.34 4.96 1 7 C-0.32 6.01 -1.64 5.02 -3 4 C-2.67 3.01 -2.34 2.02 -2 1 C-1.34 0.67 -0.68 0.34 0 0 Z " fill="#64738F" transform="translate(57,276)"/>
<path d="M0 0 C-0.99897713 2.99693138 -1.65130253 4.02709413 -4 6 C-4.66 6 -5.32 6 -6 6 C-6 4.68 -6 3.36 -6 2 C-2.25 0 -2.25 0 0 0 Z " fill="#364975" transform="translate(360,267)"/>
<path d="M0 0 C1.98 0 3.96 0 6 0 C6 0.66 6 1.32 6 2 C3.69 2.66 1.38 3.32 -1 4 C-0.67 2.68 -0.34 1.36 0 0 Z " fill="#9C2933" transform="translate(84,253)"/>
<path d="M0 0 C0.99 0 1.98 0 3 0 C2.25 4.75 2.25 4.75 0 7 C-0.93423645 3.98968256 -1.04449911 3.13349732 0 0 Z " fill="#566388" transform="translate(303,243)"/>
<path d="M0 0 C1.32 0 2.64 0 4 0 C3.25 1.9375 3.25 1.9375 2 4 C-0.125 4.75 -0.125 4.75 -2 5 C-1.125 1.125 -1.125 1.125 0 0 Z " fill="#B91820" transform="translate(106,245)"/>
</svg>
