<?xml version="1.0" encoding="UTF-8"?>
<svg version="1.1" xmlns="http://www.w3.org/2000/svg" width="5164" height="1795">
<path d="M0 0 C0.81294525 -0.00705963 1.6258905 -0.01411926 2.46347046 -0.02139282 C42.70201642 -0.29125073 78.39916347 6.07369024 114.1796875 25.203125 C114.78506348 25.52249023 115.39043945 25.84185547 116.01416016 26.17089844 C137.78664662 37.74138626 156.94202702 54.9595571 172.1796875 74.203125 C173.38818359 75.68619141 173.38818359 75.68619141 174.62109375 77.19921875 C181.56660019 85.90555781 186.38375546 94.35004053 192.1796875 104.203125 C192.5096875 74.173125 192.8396875 44.143125 193.1796875 13.203125 C221.5596875 13.203125 249.9396875 13.203125 279.1796875 13.203125 C279.2238191 67.24294556 279.26073179 121.28274906 279.28181816 175.32258249 C279.28431942 181.70960255 279.28690808 188.09662258 279.28955078 194.48364258 C279.29033771 196.39086856 279.29033771 196.39086856 279.29114054 198.33662436 C279.29983149 218.89569737 279.31559423 239.45475914 279.33399309 260.0138255 C279.35272864 281.12594788 279.36381194 302.2380644 279.36786449 323.35019475 C279.37060197 336.36635451 279.37923275 349.38248248 279.39552043 362.39863244 C279.40613246 371.3371241 279.40927862 380.27559944 279.40669025 389.21409693 C279.40541551 394.36292276 279.4073014 399.51169324 279.41809845 404.66050911 C279.49620705 443.81684284 279.49620705 443.81684284 277.1796875 461.203125 C276.95244128 463.20680703 276.72662538 465.21065346 276.50390625 467.21484375 C275.02322012 478.54975135 272.6201354 489.3087523 269.1796875 500.203125 C268.92171387 501.03312012 268.66374023 501.86311523 268.39794922 502.71826172 C256.71918288 540.0190253 238.02014921 570.83888198 211.1796875 599.203125 C210.54160156 599.88375 209.90351563 600.564375 209.24609375 601.265625 C196.6009568 614.36562299 180.85780072 625.06781933 165.11083984 634.09277344 C163.11074247 635.24276621 161.12378807 636.41359993 159.13671875 637.5859375 C152.05523352 641.71821431 145.10582552 645.30713305 137.33984375 648.03515625 C134.86929931 648.94824993 132.58567858 649.94314081 130.2109375 651.0625 C123.89191287 653.90094647 117.26369214 655.73628883 110.6171875 657.640625 C109.94104401 657.83633087 109.26490051 658.03203674 108.56826782 658.2336731 C96.72459324 661.65060344 84.81626291 664.45333887 72.69580078 666.72070312 C71.07034179 667.03235721 69.44837529 667.3631043 67.83154297 667.71679688 C60.26418525 669.35922731 52.63524066 670.14120862 44.9296875 670.828125 C44.2002594 670.89316223 43.4708313 670.95819946 42.71929932 671.02520752 C6.91324886 674.1224632 -29.68328539 673.17933442 -64.8203125 665.203125 C-65.79484375 664.98785156 -66.769375 664.77257813 -67.7734375 664.55078125 C-110.23839663 655.10819612 -150.38361137 639.27854009 -184.8203125 612.203125 C-185.47472824 611.92745193 -186.12914398 611.65177887 -186.8033905 611.36775208 C-189.59691179 609.95017615 -190.99471592 608.78004899 -192.8203125 606.203125 C-193.99687108 599.74735183 -193.75044261 593.34441261 -193.6015625 586.8046875 C-193.5866331 584.88514567 -193.57524938 582.96557326 -193.56726074 581.04598999 C-193.53678135 576.00473186 -193.4582553 570.96533117 -193.36962891 565.92480469 C-193.28764633 560.77694831 -193.25122281 555.62879041 -193.2109375 550.48046875 C-193.12525639 540.38720675 -192.98880071 530.2953206 -192.8203125 520.203125 C-188.974425 521.65353785 -186.63653139 523.06617214 -183.6953125 525.953125 C-171.73233955 537.00684069 -158.06882905 546.3524972 -143.8203125 554.203125 C-143.00143555 554.65896973 -142.18255859 555.11481445 -141.33886719 555.58447266 C-111.94215219 571.82383014 -80.8844532 582.44272751 -47.8203125 588.203125 C-46.43755127 588.4508667 -46.43755127 588.4508667 -45.02685547 588.70361328 C-13.99450642 593.98769173 21.22151878 593.89194747 52.1796875 588.203125 C53.64172607 587.95369141 53.64172607 587.95369141 55.13330078 587.69921875 C83.31586573 582.82693283 112.17018412 573.09807601 134.1796875 554.203125 C135.44039062 553.14738281 135.44039062 553.14738281 136.7265625 552.0703125 C170.43234386 522.86561374 187.79503265 478.45311152 190.98193359 434.57470703 C191.91930764 416.83356379 191.39154844 398.9602107 191.1796875 381.203125 C190.90261459 381.68242966 190.62554169 382.16173431 190.34007263 382.65556335 C189.05993418 384.86504517 187.77414935 387.07119192 186.48828125 389.27734375 C185.83490784 390.40795227 185.83490784 390.40795227 185.16833496 391.56140137 C178.3033464 403.31225407 169.57229837 413.41614279 160.1796875 423.203125 C159.71916992 423.68555664 159.25865234 424.16798828 158.78417969 424.66503906 C145.50787378 438.49956386 129.87761342 449.99548132 112.83203125 458.82421875 C111.3301951 459.6049966 109.83924491 460.41096632 108.39453125 461.29296875 C102.0339614 465.09032388 95.30591091 467.42261633 88.28759766 469.68798828 C86.3122581 470.32568101 84.34146433 470.97604012 82.37109375 471.62890625 C27.59237249 489.66976388 -35.19997741 483.74857288 -86.8203125 458.203125 C-87.88765625 457.70554687 -88.955 457.20796875 -90.0546875 456.6953125 C-105.39275821 449.37968891 -119.7179641 440.00738565 -132.8203125 429.203125 C-133.38024902 428.74470215 -133.94018555 428.2862793 -134.51708984 427.81396484 C-147.15327266 417.40997481 -158.85245192 406.22733307 -168.8203125 393.203125 C-169.25053711 392.64399414 -169.68076172 392.08486328 -170.12402344 391.50878906 C-177.05327432 382.45502691 -183.21454848 373.12718088 -188.8203125 363.203125 C-189.37283691 362.24164551 -189.37283691 362.24164551 -189.93652344 361.26074219 C-208.12072748 329.4186711 -218.82452935 291.39948413 -219.0234375 254.6640625 C-219.03049713 253.78863297 -219.03755676 252.91320343 -219.04483032 252.01124573 C-219.27567465 214.96114073 -219.27567465 214.96114073 -215.8203125 197.203125 C-215.52229736 195.65431641 -215.52229736 195.65431641 -215.21826172 194.07421875 C-203.77367503 136.53409453 -172.44700506 80.39745429 -124.47509766 45.41357422 C-122.82787119 44.20865407 -121.20460109 42.97613318 -119.58203125 41.73828125 C-85.76895855 16.32955589 -42.50455707 0.24759716 0 0 Z M-16.8203125 90.203125 C-17.97144531 90.53957031 -19.12257813 90.87601563 -20.30859375 91.22265625 C-30.02467993 94.23938498 -38.87441368 98.38662244 -47.8203125 103.203125 C-48.43825684 103.5321582 -49.05620117 103.86119141 -49.69287109 104.20019531 C-58.20785996 108.76610487 -66.55297394 113.78763565 -73.8203125 120.203125 C-73.8203125 120.863125 -73.8203125 121.523125 -73.8203125 122.203125 C-74.41038086 122.46939697 -75.00044922 122.73566895 -75.60839844 123.01000977 C-79.36031978 125.03381105 -82.08827528 128.13346656 -85.0703125 131.140625 C-85.74126953 131.81577148 -86.41222656 132.49091797 -87.10351562 133.18652344 C-92.28535879 138.48647845 -96.77334665 143.98278859 -100.8203125 150.203125 C-101.3978125 151.0590625 -101.9753125 151.915 -102.5703125 152.796875 C-111.0088214 165.60532601 -117.2468801 178.59832666 -121.8203125 193.203125 C-122.20058594 194.38003906 -122.58085937 195.55695313 -122.97265625 196.76953125 C-135.39260002 238.7161338 -128.95939064 284.38143754 -108.5090332 322.53515625 C-102.04684244 334.25759551 -94.01940041 344.4838948 -84.8203125 354.203125 C-83.51513672 355.62238281 -83.51513672 355.62238281 -82.18359375 357.0703125 C-55.31816388 385.6569259 -15.48813603 400.63350417 23.21044922 402.18188477 C66.9740783 403.12615885 108.26280067 387.32989647 140.23046875 357.47265625 C148.95752694 349.10094269 156.53934959 340.30798703 163.1796875 330.203125 C163.57736328 329.60177734 163.97503906 329.00042969 164.38476562 328.38085938 C186.46881805 294.50894372 194.85438902 252.40383059 186.71875 212.65380859 C181.07775558 187.00874428 170.49092075 163.13830502 153.1796875 143.203125 C152.13554687 141.99462891 152.13554687 141.99462891 151.0703125 140.76171875 C141.00312594 129.00701918 141.00312594 129.00701918 129.1796875 119.203125 C128.5196875 119.203125 127.8596875 119.203125 127.1796875 119.203125 C127.1796875 118.543125 127.1796875 117.883125 127.1796875 117.203125 C125.16697048 115.7287639 123.16935583 114.39253595 121.0546875 113.078125 C120.42522217 112.68141602 119.79575684 112.28470703 119.1472168 111.87597656 C78.41056327 86.40987014 30.12889781 75.89171055 -16.8203125 90.203125 Z " fill="#FD9904" transform="translate(3606.8203125,624.796875)"/>
<path d="M0 0 C0.79070389 -0.00705963 1.58140778 -0.01411926 2.39607239 -0.02139282 C61.64202223 -0.42981298 116.0284482 16.46099201 160.1796875 57.171875 C162.16859549 58.99270625 164.20526726 60.72399906 166.2734375 62.453125 C214.10865141 104.44074763 239.01589489 171.48196848 243.2043457 233.54833984 C246.42657895 294.22359982 232.89984533 357.57192854 196.3984375 407.203125 C195.79418945 408.02828613 195.79418945 408.02828613 195.17773438 408.87011719 C192.33664141 412.71752437 189.39772912 416.47812423 186.3984375 420.203125 C185.98013672 420.72583984 185.56183594 421.24855469 185.13085938 421.78710938 C174.58901114 434.87187673 162.79453993 447.02794337 149.3984375 457.203125 C148.84220703 457.63044922 148.28597656 458.05777344 147.71289062 458.49804688 C138.65443502 465.43204384 129.3220951 471.58482353 119.3984375 477.203125 C118.76276855 477.57147461 118.12709961 477.93982422 117.47216797 478.31933594 C97.54935756 489.80770823 75.90373673 496.80469518 53.3984375 501.203125 C52.48900391 501.38101562 51.57957031 501.55890625 50.64257812 501.7421875 C-1.86274773 511.43547843 -59.52886449 500.44750949 -103.80664062 470.44873047 C-113.41999241 463.77744091 -122.15854821 456.289859 -130.6015625 448.203125 C-131.10574707 447.72617188 -131.60993164 447.24921875 -132.12939453 446.7578125 C-143.57416859 435.8905437 -152.37554572 423.99877374 -160.5703125 410.5390625 C-161.87217278 408.40100734 -163.2130248 406.28593155 -164.6015625 404.203125 C-164.6015625 486.373125 -164.6015625 568.543125 -164.6015625 653.203125 C-194.6315625 653.203125 -224.6615625 653.203125 -255.6015625 653.203125 C-255.6015625 442.003125 -255.6015625 230.803125 -255.6015625 13.203125 C-226.8915625 13.203125 -198.1815625 13.203125 -168.6015625 13.203125 C-168.2715625 43.233125 -167.9415625 73.263125 -167.6015625 104.203125 C-164.3015625 98.923125 -161.0015625 93.643125 -157.6015625 88.203125 C-145.53778659 71.31383873 -132.0030805 55.99991377 -115.6015625 43.203125 C-114.6425 42.4503125 -113.6834375 41.6975 -112.6953125 40.921875 C-105.62946693 35.49233051 -98.32700147 30.64047259 -90.6015625 26.203125 C-89.97685059 25.8421875 -89.35213867 25.48125 -88.70849609 25.109375 C-62.11315304 9.92333525 -30.79185994 0.18471777 0 0 Z M-113.6015625 128.203125 C-114.55933594 129.09644531 -115.51710938 129.98976563 -116.50390625 130.91015625 C-146.98671915 159.91791477 -164.76054107 203.53042918 -165.8046875 245.3125 C-166.39786781 295.63837129 -150.09220015 339.62074046 -115.0390625 376.015625 C-93.79128333 396.35278507 -67.26759252 410.75838312 -38.6015625 417.203125 C-37.46750977 417.46561035 -37.46750977 417.46561035 -36.31054688 417.73339844 C3.34528056 426.52452787 45.31504038 417.51039986 79.3984375 396.203125 C116.06199027 372.01430802 140.17552285 334.70404603 149.31640625 291.85229492 C158.83253568 244.47288172 150.96669945 193.85690269 124.3984375 153.203125 C101.07625557 118.9525323 65.26655164 94.44443383 24.47363281 86.57763672 C-26.24922894 77.42365202 -76.33514373 92.87114629 -113.6015625 128.203125 Z " fill="#FD9904" transform="translate(753.6015625,624.796875)"/>
<path d="M0 0 C0.86993591 -0.00067474 1.73987183 -0.00134949 2.63616943 -0.00204468 C16.05224026 0.01447187 29.06941298 0.5436495 42.25 3.25 C43.11109375 3.42160645 43.9721875 3.59321289 44.859375 3.77001953 C80.15855963 10.98854797 112.39932753 26.4058924 138.8515625 51.0390625 C140.69247128 52.73605659 142.53680561 54.32729648 144.5 55.875 C148.16144241 59.03715481 151.16129555 62.53435182 154.25 66.25 C154.67555176 66.74725586 155.10110352 67.24451172 155.53955078 67.75683594 C164.81549041 78.61915186 172.85010725 90.45021451 179.25 103.25 C179.58 73.55 179.91 43.85 180.25 13.25 C208.96 13.25 237.67 13.25 267.25 13.25 C267.25 170.99 267.25 328.73 267.25 491.25 C238.54 491.25 209.83 491.25 180.25 491.25 C179.92 461.22 179.59 431.19 179.25 400.25 C176.61 405.2 173.97 410.15 171.25 415.25 C169.37933681 418.21269955 167.54305985 421.04891088 165.5 423.875 C164.75073242 424.9263916 164.75073242 424.9263916 163.98632812 425.99902344 C159.68670484 431.90630861 154.91948185 437.2700015 149.84375 442.515625 C147.25692032 445.16356086 147.25692032 445.16356086 145.1640625 447.87109375 C143.29594344 450.19289886 141.36730857 452.10580868 139.125 454.0625 C138.44179688 454.66707031 137.75859375 455.27164062 137.0546875 455.89453125 C135.25 457.25 135.25 457.25 133.25 457.25 C133.25 457.91 133.25 458.57 133.25 459.25 C131.74047852 460.57519531 131.74047852 460.57519531 129.62890625 462.078125 C128.85740234 462.63113281 128.08589844 463.18414063 127.29101562 463.75390625 C126.47310547 464.33011719 125.65519531 464.90632813 124.8125 465.5 C124.02939453 466.06074219 123.24628906 466.62148437 122.43945312 467.19921875 C120.05412883 468.89937582 117.65563283 470.57872082 115.25 472.25 C114.48647217 472.78359131 113.72294434 473.31718262 112.9362793 473.86694336 C108.11420674 477.1698681 103.25913958 479.90432119 97.9375 482.3125 C97.19822266 482.65265137 96.45894531 482.99280273 95.69726562 483.34326172 C86.82529097 487.3996272 77.87272365 491.08964088 68.6875 494.375 C68.01525391 494.61686035 67.34300781 494.8587207 66.65039062 495.10791016 C16.26658458 512.79558413 -45.94582004 507.10972172 -93.79248047 484.83349609 C-106.03034481 478.89790639 -117.76182441 472.27550438 -128.75 464.25 C-129.31895996 463.83508301 -129.88791992 463.42016602 -130.47412109 462.99267578 C-137.06258317 458.14223993 -143.33847016 453.00744514 -149.35546875 447.45703125 C-150.96366789 445.97475961 -152.59183582 444.51388925 -154.23828125 443.07421875 C-199.88650373 403.10540187 -225.60049424 339.70882818 -230.75 280.25 C-230.86085937 279.00089844 -230.97171875 277.75179688 -231.0859375 276.46484375 C-236.55959711 203.75393294 -216.15265308 132.92310393 -168.8125 77.0625 C-159.66644724 66.47627738 -149.83291365 56.80548642 -138.75 48.25 C-138.17975098 47.79802246 -137.60950195 47.34604492 -137.02197266 46.88037109 C-126.51743092 38.55952939 -115.53019373 31.62421441 -103.75 25.25 C-103.0590625 24.87359375 -102.368125 24.4971875 -101.65625 24.109375 C-91.07814359 18.40711451 -80.13051112 14.07796825 -68.75 10.25 C-68.04794434 10.01152344 -67.34588867 9.77304687 -66.62255859 9.52734375 C-44.99607494 2.3099237 -22.67096767 0.01579168 0 0 Z M-92.75 129.25 C-93.44609375 129.88164063 -94.1421875 130.51328125 -94.859375 131.1640625 C-123.47049075 158.00176199 -139.49537836 201.06467091 -140.87597656 239.78295898 C-140.95677897 243.8560654 -140.99658753 247.92620283 -141 252 C-141.00067474 252.72721252 -141.00134949 253.45442505 -141.00204468 254.20367432 C-140.93826509 297.69181551 -126.75411762 340.19861529 -96.16210938 371.78222656 C-94.74908123 373.25095498 -93.36633448 374.74425258 -91.984375 376.2421875 C-64.75990751 405.22140294 -25.68674158 418.28962171 13.1484375 420.46875 C38.57411642 421.09783896 63.47043773 415.40212269 86.25 404.25 C86.87036133 403.95399902 87.49072266 403.65799805 88.12988281 403.35302734 C102.77047001 396.3068165 115.54013233 386.46595409 127.25 375.25 C127.99378906 374.55777344 128.73757813 373.86554688 129.50390625 373.15234375 C161.22857107 342.75183885 175.26503627 299.41168032 177.4375 256.55078125 C178.27849905 212.13551898 162.82322909 167.29509903 131.94921875 135.01171875 C130.61310547 133.64466797 130.61310547 133.64466797 129.25 132.25 C127.96029297 130.86748047 127.96029297 130.86748047 126.64453125 129.45703125 C98.99858704 100.50433635 58.9823556 84.93873836 19.34887695 83.89624023 C-23.60391606 83.54519345 -61.87933265 99.87876507 -92.75 129.25 Z " fill="#FD9904" transform="translate(4398.75,624.75)"/>
<path d="M0 0 C0.91909149 0.00215515 1.83818298 0.0043103 2.78512573 0.00653076 C60.44369956 0.22286687 114.18774768 19.89140841 157.375 58.3125 C157.87837891 58.75416504 158.38175781 59.19583008 158.90039062 59.65087891 C199.28917208 95.15308443 224.53218894 144.87970555 234.375 197.3125 C234.64618652 198.75689453 234.64618652 198.75689453 234.92285156 200.23046875 C239.11471569 223.86491542 239.31533664 250.44910118 236.375 274.3125 C235.375 275.3125 235.375 275.3125 232.77575821 275.4366985 C231.60356155 275.43631878 230.43136489 275.43593906 229.22364712 275.43554783 C228.24434799 275.4372786 228.24434799 275.4372786 227.24526504 275.43904433 C225.03038278 275.44171734 222.81557141 275.43718326 220.60069275 275.43275452 C219.00765658 275.43319008 217.41462048 275.43406471 215.82158476 275.43534368 C211.42282756 275.43759159 207.02409447 275.43356335 202.62534034 275.42856562 C197.88979902 275.42426552 193.15425916 275.42570723 188.41871643 275.4264679 C180.20702222 275.42699341 171.99533594 275.42384374 163.78364372 275.41823006 C151.91077058 275.41011878 140.03790128 275.40750022 128.16502566 275.40624207 C108.90420439 275.40405096 89.64338734 275.39738929 70.38256836 275.38793945 C51.6673993 275.37876685 32.95223139 275.37168528 14.23706055 275.36743164 C13.08434298 275.36716892 11.93162541 275.36690619 10.743977 275.36663551 C4.96139614 275.36533051 -0.82118473 275.3640668 -6.60376561 275.36282361 C-54.61084666 275.35244917 -102.61792312 275.33482926 -150.625 275.3125 C-150.02636298 279.26060449 -149.41464683 283.20658075 -148.80078125 287.15234375 C-148.63356567 288.25622437 -148.4663501 289.36010498 -148.29406738 290.49743652 C-142.47634276 327.62559451 -123.15119013 363.746203 -92.625 386.3125 C-82.82952658 393.43158358 -72.65168726 399.31538705 -61.625 404.3125 C-61.01188965 404.59077637 -60.3987793 404.86905273 -59.76708984 405.15576172 C-32.43656161 417.31979215 -1.75411455 420.54460474 27.875 420.5 C28.62100464 420.49939575 29.36700928 420.4987915 30.13562012 420.49816895 C91.91416521 420.3628706 153.11456531 399.50401655 199.6574707 358.296875 C202.44770442 355.84718957 205.01546554 353.87765528 208.375 352.3125 C208.5605411 363.79548493 208.7025985 375.27811206 208.78949738 386.76229191 C208.83120997 392.09524118 208.887766 397.42716335 208.97851562 402.75952148 C209.06558254 407.90783684 209.11330369 413.05516582 209.13401794 418.20416069 C209.14877482 420.16624924 209.17759342 422.12828509 209.22084045 424.08995247 C209.54615147 439.4603341 209.54615147 439.4603341 206.65956116 444.02545166 C204.63464466 445.83050877 202.77402577 447.06814126 200.375 448.3125 C199.23967223 449.12556327 198.11270328 449.95047787 196.99609375 450.7890625 C195.94550781 451.49804688 194.89492187 452.20703125 193.8125 452.9375 C190.41673411 455.23931162 187.03358987 457.53928567 183.75 460 C174.2075904 466.79954307 163.10797029 471.386168 152.52636719 476.31103516 C150.73675533 477.14410232 148.950035 477.98337768 147.1640625 478.82421875 C136.11365814 483.96055039 124.78377621 488.00226689 113.0625 491.3125 C111.85553467 491.65498779 110.64856934 491.99747559 109.4050293 492.3503418 C98.69666989 495.32936963 87.92363488 497.74561341 77.00537109 499.81298828 C73.94393227 500.39436046 70.8902064 501.0107383 67.8371582 501.63452148 C61.64137671 502.76908797 55.53382163 503.55607348 49.2421875 503.8828125 C48.47414795 503.92373016 47.7061084 503.96464783 46.91479492 504.00680542 C38.01494439 504.43745411 29.11556522 504.46289373 20.20703125 504.44287109 C17.37754971 504.43750484 14.54822682 504.44285928 11.71875 504.44921875 C-5.50195902 504.45876714 -22.22969651 503.79795864 -39.1875 500.6875 C-39.9105835 500.55822113 -40.63366699 500.42894226 -41.37866211 500.29574585 C-54.15227662 498.00047606 -66.61509721 494.92882826 -79.02514648 491.11035156 C-80.79161338 490.56825242 -82.56218954 490.03940272 -84.33618164 489.52246094 C-88.72760264 488.24232451 -92.92252996 486.91143771 -97.0625 484.9375 C-101.07699588 483.03838667 -101.07699588 483.03838667 -105.1328125 481.23046875 C-128.05965216 471.30952743 -149.15344072 457.24193538 -167.44140625 440.28515625 C-168.98023451 438.89498045 -170.57418473 437.56465749 -172.203125 436.28125 C-174.34481338 434.5402646 -176.04444539 432.85439404 -177.8125 430.75 C-179.76559163 428.4532313 -181.72890577 426.2030079 -183.8046875 424.015625 C-214.7435227 391.35233013 -233.19624934 348.31241756 -240.625 304.3125 C-240.78726074 303.42739746 -240.94952148 302.54229492 -241.11669922 301.63037109 C-246.58263075 271.01777004 -246.30420328 235.86524791 -240.625 205.3125 C-240.39151855 203.95487549 -240.39151855 203.95487549 -240.15332031 202.56982422 C-233.14475893 162.56786557 -215.87866626 124.08771744 -190.625 92.3125 C-189.92117187 91.41660156 -189.21734375 90.52070312 -188.4921875 89.59765625 C-153.03277993 45.30517045 -103.95701292 15.53798988 -48.4375 4.0625 C-47.715625 3.91135742 -46.99375 3.76021484 -46.25 3.60449219 C-30.92033568 0.63118164 -15.5723002 -0.0660929 0 0 Z M-47.875 90.1875 C-48.62040039 90.44869629 -49.36580078 90.70989258 -50.13378906 90.97900391 C-51.61758525 91.50282796 -53.09916282 92.03299171 -54.578125 92.5703125 C-56.43100195 93.24215719 -58.29317014 93.88824014 -60.15625 94.53125 C-68.53866609 97.54240918 -76.09636476 101.61648429 -83.625 106.3125 C-84.69621094 106.98023438 -85.76742187 107.64796875 -86.87109375 108.3359375 C-96.03385932 114.36968031 -103.85517129 121.60475351 -111.625 129.3125 C-112.38554687 130.06015625 -113.14609375 130.8078125 -113.9296875 131.578125 C-129.78239856 148.28596156 -143.58442274 173.53833726 -147.625 196.3125 C-147.955 197.9625 -148.285 199.6125 -148.625 201.3125 C-51.935 201.3125 44.755 201.3125 144.375 201.3125 C143.66302932 190.36984183 143.66302932 190.36984183 141.3125 180 C141.09770996 179.29343262 140.88291992 178.58686523 140.66162109 177.85888672 C131.91260897 150.5568759 112.58673438 127.59222321 89.375 111.3125 C88.77816406 110.84714844 88.18132813 110.38179687 87.56640625 109.90234375 C81.76770087 105.40509344 74.94578922 102.49902857 68.375 99.3125 C66.8945013 98.56513287 65.41504019 97.8156992 63.9375 97.0625 C56.96220283 93.63603823 50.18303421 91.26703639 42.6875 89.25 C41.77033203 88.99412109 40.85316406 88.73824219 39.90820312 88.47460938 C27.13534343 85.00246233 15.06680583 83.96452437 1.88647461 83.99682617 C-0.79029593 83.99997389 -3.46594431 83.97649504 -6.14257812 83.95117188 C-20.47720473 83.89728417 -34.30575858 85.25591856 -47.875 90.1875 Z " fill="#FD9904" transform="translate(2744.625,624.6875)"/>
<path d="M0 0 C30.03 0 60.06 0 91 0 C91 46.53 91 93.06 91 141 C141.49 141 191.98 141 244 141 C244 167.07 244 193.14 244 220 C193.51 220 143.02 220 91 220 C91.11972997 265.10940735 91.11972997 265.10940735 91.2578125 310.21875 C91.27781819 316.31119744 91.29770226 322.40364525 91.31738281 328.49609375 C91.31985425 329.25960113 91.32232569 330.0231085 91.32487202 330.80975246 C91.36450727 343.10906973 91.39728651 355.4083961 91.42749982 367.70773971 C91.4586993 380.3459028 91.49734447 392.9840276 91.54279006 405.62214756 C91.57056325 413.41001876 91.59264421 421.19786221 91.60726251 428.98576939 C91.61912821 434.9743907 91.64139205 440.96292909 91.66738319 446.95150757 C91.6764014 449.39586383 91.68213563 451.84023492 91.68421364 454.28460693 C91.71097072 480.99447479 92.96201003 508.32645548 112.55859375 528.78515625 C127.0478692 541.92982693 145.94864511 546.41581029 165.0390625 546.1484375 C192.08708457 544.79246806 216.68405261 532.78683183 238.1875 516.9375 C241 515 241 515 244 515 C244.30164799 526.46525446 244.53240786 537.92956084 244.67355824 549.39797974 C244.74131865 554.72394252 244.83315101 560.04718517 244.98071289 565.37158203 C245.12232253 570.51358566 245.19976052 575.65298009 245.23340416 580.79678345 C245.25736558 582.7555145 245.3041657 584.71410757 245.37449074 586.67172241 C245.88894557 601.59036384 245.88894557 601.59036384 242.75274658 605.59106064 C239.26102929 608.64144631 235.30407648 610.31984674 231 612 C229.11828831 612.91083336 227.23984737 613.82851099 225.3671875 614.7578125 C223.54213335 615.55991366 221.71125463 616.34888285 219.875 617.125 C218.8943457 617.54531494 217.91369141 617.96562988 216.90332031 618.39868164 C208.41951732 621.9637715 199.81316579 624.89907823 190.97119141 627.43457031 C189.21940377 627.93706476 187.47437081 628.46297469 185.73046875 628.9921875 C175.35813171 632.03860817 165.04276518 632.16298838 154.2878418 632.13037109 C152.20158533 632.12503602 150.11554663 632.13033352 148.02929688 632.13671875 C135.3401581 632.1462956 123.22865668 631.44665075 110.875 628.375 C109.79605469 628.10921143 108.71710937 627.84342285 107.60546875 627.56958008 C85.28592105 621.89559447 65.52900846 613.05982762 48 598 C47.48195801 597.56026855 46.96391602 597.12053711 46.43017578 596.66748047 C40.44278521 591.5609845 40.44278521 591.5609845 38 589 C38 588.34 38 587.68 38 587 C37.34 587 36.68 587 36 587 C4.26658735 551.9101687 -0.18163967 505.94032926 -0.11352539 460.78735352 C-0.11324292 458.15463153 -0.11335855 455.52191232 -0.1139679 452.88919067 C-0.11448909 447.24836816 -0.11138487 441.60755732 -0.10573006 435.96673775 C-0.09755979 427.81133007 -0.09499421 419.65592797 -0.09374207 411.50051665 C-0.09156018 398.2649083 -0.08492362 385.02930616 -0.07543945 371.79370117 C-0.06624292 358.94604523 -0.05917308 346.09839099 -0.05493164 333.25073242 C-0.05466892 332.45714545 -0.05440619 331.66355849 -0.05413551 330.84592343 C-0.05283035 326.86423593 -0.05156667 322.88254842 -0.05032361 318.90086091 C-0.0399779 285.93390177 -0.02155418 252.96695419 0 220 C-34.32 220 -68.64 220 -104 220 C-104 193.93 -104 167.86 -104 141 C-69.68 141 -35.36 141 0 141 C0 94.47 0 47.94 0 0 Z " fill="#FD9904" transform="translate(2209,497)"/>
<path d="M0 0 C28.71 0 57.42 0 87 0 C87.33 31.02 87.66 62.04 88 94 C92.455 84.595 92.455 84.595 97 75 C98.78747264 71.87662676 100.49313499 68.94803434 102.5 66 C102.95866455 65.3090625 103.4173291 64.618125 103.88989258 63.90625 C107.90180458 57.95259758 112.279732 52.41210691 117 47 C117.64324219 46.22398437 118.28648437 45.44796875 118.94921875 44.6484375 C124.03872123 38.64014045 129.77780135 33.80219481 136 29 C136.81855469 28.34257813 137.63710937 27.68515625 138.48046875 27.0078125 C159.455482 10.81315111 187.45665584 0.80117705 214 0 C214.6693457 -0.02046387 215.33869141 -0.04092773 216.02832031 -0.06201172 C238.92856639 -0.66048467 260.08978954 3.42693686 282 10 C282 36.07 282 62.14 282 89 C269 86 269 86 263.8125 84.5 C230.2405512 75.39655908 195.33629705 78.98671128 164.8828125 95.88964844 C160.60407642 98.41294871 156.58076176 101.28408519 152.57421875 104.21484375 C150 106 150 106 147 107 C147 107.66 147 108.32 147 109 C145.56640625 110.375 145.56640625 110.375 143.5625 112 C120.62140386 131.63499792 107.00115842 160.41404311 99 189 C98.78021484 189.77827148 98.56042969 190.55654297 98.33398438 191.35839844 C92.30641409 213.43658342 91.54992618 236.71590286 91.56762695 259.46362305 C91.55857663 261.87152091 91.54824162 264.27941422 91.53674316 266.68730164 C91.50953054 273.1276588 91.49993811 279.56792776 91.49388909 286.00833488 C91.48679952 292.08619221 91.46322273 298.16399657 91.44127061 304.24181471 C91.39830847 316.2561636 91.36816883 328.2705074 91.34643555 340.28491211 C91.32533305 351.93500259 91.29797851 363.58505162 91.26245117 375.23510742 C91.26025235 375.95684081 91.25805352 376.6785742 91.25578807 377.42217829 C91.24471612 381.04398486 91.23352374 384.66579105 91.22227156 388.28759706 C91.12952084 418.19170407 91.06014801 448.09580428 91 478 C60.97 478 30.94 478 0 478 C0 320.26 0 162.52 0 0 Z " fill="#FD9904" transform="translate(3078,638)"/>
<path d="M0 0 C28.71 0 57.42 0 87 0 C87.33 31.35 87.66 62.7 88 95 C91.3 88.07 94.6 81.14 98 74 C100.88039976 69.17228772 103.72481519 64.53789036 107 60 C107.40798828 59.43265137 107.81597656 58.86530273 108.23632812 58.28076172 C118.70848966 43.92750521 130.94677411 31.50857398 146 22 C146.61568848 21.60973633 147.23137695 21.21947266 147.86572266 20.81738281 C181.60625674 -0.17634268 222.56986943 -4.7272183 260.87255859 4.18896484 C268.01535064 5.90418497 275.02664003 7.67554668 282 10 C282 36.07 282 62.14 282 89 C276.72 87.68 271.44 86.36 266 85 C262.83501976 84.25376589 259.67374394 83.51678587 256.5 82.8125 C255.42105469 82.5659668 255.42105469 82.5659668 254.3203125 82.31445312 C236.0694429 78.24589284 216.13581546 78.4032806 198 83 C197.35337402 83.16097168 196.70674805 83.32194336 196.04052734 83.48779297 C178.87757525 87.92450345 162.72514269 95.77595656 149 107 C148.45682129 107.44150391 147.91364258 107.88300781 147.35400391 108.33789062 C118.69551596 132.09393341 102.59520437 168.84493362 95.8125 204.75 C95.65749023 205.55743652 95.50248047 206.36487305 95.34277344 207.19677734 C92.16566207 225.18310387 91.69776664 243.29177986 91.68115234 261.50708008 C91.67182845 263.88453503 91.66165623 266.26198678 91.65071106 268.63943481 C91.62367414 275.0243445 91.60834072 281.40923246 91.59528303 287.79418397 C91.58113648 293.81176306 91.55802131 299.82930273 91.53501268 305.84685274 C91.48979347 317.74806277 91.45307728 329.64928267 91.421875 341.55053711 C91.3915866 353.0961276 91.35719001 364.64169409 91.31738281 376.18725586 C91.31492126 376.9016046 91.31245972 377.61595334 91.30992357 378.35194901 C91.29754698 381.93642709 91.28509084 385.52090489 91.27259517 389.10538256 C91.16940076 418.7368905 91.08167267 448.36842325 91 478 C60.97 478 30.94 478 0 478 C0 320.26 0 162.52 0 0 Z " fill="#FD9904" transform="translate(1078,638)"/>
<path d="M0 0 C30.03 0 60.06 0 91 0 C91 157.74 91 315.48 91 478 C60.97 478 30.94 478 0 478 C0 320.26 0 162.52 0 0 Z " fill="#FD9A04" transform="translate(3990,638)"/>
<path d="M0 0 C1.17961304 0.00845947 1.17961304 0.00845947 2.38305664 0.01708984 C18.57971737 0.35179322 31.03224417 6.75900148 42.25 18.3125 C52.50810191 29.85286465 57.00983797 44.16009285 56.1875 59.5 C54.86133608 76.31357517 46.94000534 89.43808277 34.25 100.3125 C21.15914789 110.19439324 6.14860858 111.80529702 -9.75 110.3125 C-23.03178066 107.93646286 -35.59764734 100.53184861 -43.7265625 89.671875 C-52.88715 75.71659703 -56.66725797 62.01217967 -54.3203125 45.2421875 C-51.28553041 31.19227043 -44.35829001 18.8990199 -32.75 10.3125 C-22.51301637 3.79598933 -12.18955134 -0.09233509 0 0 Z " fill="#FD9A04" transform="translate(4034.75,440.6875)"/>
<path d="M0 0 C4.13998234 0.59499575 7.09334263 1.97741831 10.69921875 4.0703125 C11.81248535 4.71170166 12.92575195 5.35309082 14.07275391 6.01391602 C15.27773761 6.71749364 16.48265113 7.4211915 17.6875 8.125 C18.94411816 8.85213915 20.20112306 9.57861033 21.45849609 10.30444336 C24.04627864 11.7996765 26.63175689 13.2987785 29.21533203 14.80126953 C33.78209919 17.45642745 38.36046895 20.09133328 42.93847656 22.72705078 C47.21180893 25.18850594 51.48153225 27.65618863 55.75146484 30.12353516 C60.20218169 32.6944212 64.6548406 35.26193464 69.10742188 37.82958984 C80.74528648 44.54098596 92.37640722 51.26391792 104 58 C103.42460446 63.31198487 101.62268606 67.45132643 99.3125 72.1875 C98.76468872 73.32493652 98.76468872 73.32493652 98.20581055 74.48535156 C89.22753761 92.98985788 78.27914317 110.50769709 66 127 C62.43873136 126.33040431 59.7808428 124.8556215 56.67578125 123.015625 C55.64646484 122.40976563 54.61714844 121.80390625 53.55664062 121.1796875 C52.48607422 120.54289062 51.41550781 119.90609375 50.3125 119.25 C48.20494445 118.00433259 46.09687914 116.75952718 43.98828125 115.515625 C42.45046997 114.60792358 42.45046997 114.60792358 40.8815918 113.68188477 C37.71890056 111.83593205 34.52447762 110.05731363 31.31665039 108.29150391 C26.52441165 105.61989015 21.79884232 102.83157616 17.0625 100.0625 C16.04220703 99.46759766 15.02191406 98.87269531 13.97070312 98.25976562 C9.27176134 95.51596746 4.58603828 92.7555683 -0.06640625 89.93359375 C-4.36553926 87.34252946 -8.75055286 84.94255745 -13.16650391 82.55761719 C-18.07340366 79.86021753 -22.87651702 76.98891176 -27.6875 74.125 C-28.68716797 73.53203125 -29.68683594 72.9390625 -30.71679688 72.328125 C-33.14555981 70.88713646 -35.5732721 69.44441208 -38 68 C-36.49652566 64.00825908 -34.83013313 61.39666881 -32 58.1875 C-18.13112975 41.53158405 -6.78015501 20.53756255 0 0 Z " fill="#FC9A04" transform="translate(1941,951)"/>
<path d="M0 0 C2.70152124 1.27319 5.01633578 2.66082864 7.36328125 4.50390625 C7.99500244 4.9927832 8.62672363 5.48166016 9.27758789 5.98535156 C10.28486938 6.76604004 10.28486938 6.76604004 11.3125 7.5625 C18.89277023 13.33316353 26.6992506 18.34004601 35 23 C35.59603027 23.3398291 36.19206055 23.6796582 36.80615234 24.02978516 C47.16990692 29.91054793 57.96364222 34.53318566 69 39 C65.15618294 46.90535539 61.04462732 54.56508071 56.5625 62.125 C55.32231764 64.23402286 54.08275562 66.34341061 52.84375 68.453125 C52.20953125 69.53142578 51.5753125 70.60972656 50.921875 71.72070312 C47.77515838 77.08994826 44.6685167 82.48214031 41.5625 87.875 C40.9449585 88.94613037 40.32741699 90.01726074 39.69116211 91.12084961 C36.46924599 96.71021181 33.25120037 102.30178867 30.03515625 107.89453125 C18.72548924 127.55261045 18.72548924 127.55261045 13.6875 136.0625 C13.33252441 136.66989014 12.97754883 137.27728027 12.61181641 137.90307617 C10.23397588 141.88301206 10.23397588 141.88301206 8 143 C4.19196057 141.56447725 0.57006255 139.71464433 -3.08642578 137.93115234 C-4.95684225 137.02100072 -6.83512908 136.12903603 -8.71484375 135.23828125 C-26.04492984 126.91236795 -45.58796811 116.99622203 -59 103 C-51.0055857 88.60491316 -42.8882509 74.29619789 -34.5625 60.08984375 C-28.97419178 50.5524027 -23.46996808 40.96629646 -17.95263672 31.38769531 C-15.88857242 27.80668054 -13.8216295 24.22734013 -11.75390625 20.6484375 C-10.71407145 18.84814134 -9.67427733 17.04782169 -8.63449097 15.24749756 C-7.64282016 13.53084792 -6.65063837 11.8144935 -5.65844727 10.09814453 C-5.06217529 9.06544434 -4.46590332 8.03274414 -3.8515625 6.96875 C-3.32385254 6.05544922 -2.79614258 5.14214844 -2.25244141 4.20117188 C-1.46663489 2.82011309 -0.71060752 1.42121505 0 0 Z " fill="#FC9A04" transform="translate(1595,1043)"/>
<path d="M0 0 C3.17440814 2.92629249 5.2534503 5.84345489 7.36328125 9.6015625 C7.99500244 10.71805176 8.62672363 11.83454102 9.27758789 12.98486328 C9.95590002 14.19823766 10.63420384 15.41161669 11.3125 16.625 C12.02454459 17.88698773 12.73736621 19.14853733 13.45092773 20.40966797 C14.55093263 22.35403665 15.65044428 24.29866659 16.74757385 26.24465942 C20.30991379 32.56279038 23.93062903 38.84660463 27.5625 45.125 C28.79823924 47.26428701 30.03391621 49.40361 31.26953125 51.54296875 C31.88135254 52.60177246 32.49317383 53.66057617 33.12353516 54.75146484 C35.6944212 59.20218169 38.26193464 63.6548406 40.82958984 68.10742188 C47.54098596 79.74528648 54.26391792 91.37640722 61 103 C56.84001476 107.55417739 52.18076155 110.74787811 47 114.0625 C46.12569336 114.62541748 45.25138672 115.18833496 44.35058594 115.76831055 C31.96581109 123.66266694 19.22297729 130.97828841 6.125 137.625 C5.50141602 137.94380127 4.87783203 138.26260254 4.23535156 138.59106445 C0.21800149 140.57837061 -3.6820122 141.88461185 -8 143 C-8.3717334 142.33170166 -8.7434668 141.66340332 -9.12646484 140.97485352 C-18.4658349 124.19311466 -18.4658349 124.19311466 -28.11010742 107.5859375 C-33.16304855 99.0620745 -38.09155263 90.46647743 -43.03515625 81.87890625 C-45.3797885 77.80652761 -47.73025297 73.73772761 -50.09120178 69.67478943 C-51.11289754 67.91644944 -52.13339262 66.15741787 -53.15356445 64.39819336 C-54.42973224 62.19844359 -55.70807428 59.99995315 -56.98901367 57.80297852 C-60.559882 51.63959571 -63.90397056 45.41561172 -67 39 C-66.27111572 38.68885254 -65.54223145 38.37770508 -64.79125977 38.05712891 C-41.09635793 27.88644174 -20.20202002 16.14023821 0 0 Z " fill="#FC9A04" transform="translate(1877,1043)"/>
<path d="M0 0 C0.40613525 0.7120459 0.81227051 1.4240918 1.23071289 2.15771484 C15.10766577 26.48079441 29.07505537 50.74928761 43.20458984 74.92675781 C46.43099256 80.44946075 49.65265698 85.97492772 52.875 91.5 C54.05987649 93.53126128 55.24477044 95.56251238 56.4296875 97.59375 C57.28645833 99.0625 58.14322917 100.53125 59 102 C56.7835382 104.47954332 54.8258642 105.68692161 51.74609375 106.91015625 C50.90079102 107.25473877 50.05548828 107.59932129 49.18457031 107.9543457 C48.27803711 108.32003662 47.37150391 108.68572754 46.4375 109.0625 C28.75012973 116.45045324 12.97766093 126.00299242 -2.19824219 137.69335938 C-2.91399414 138.24314453 -3.62974609 138.79292969 -4.3671875 139.359375 C-5.0154248 139.86436523 -5.66366211 140.36935547 -6.33154297 140.88964844 C-8 142 -8 142 -10 142 C-28.80859375 109.3984375 -28.80859375 109.3984375 -30.65820312 106.19238281 C-31.89510728 104.04845933 -33.13208754 101.90457974 -34.36914062 99.76074219 C-37.50958117 94.31807441 -40.64868634 88.87464455 -43.78515625 83.4296875 C-45.04426459 81.24478807 -46.30337914 79.05989221 -47.5625 76.875 C-48.17295166 75.81474609 -48.78340332 74.75449219 -49.41235352 73.66210938 C-52.60282634 68.12784828 -55.81287582 62.60590431 -59.0546875 57.1015625 C-59.70622803 55.99312988 -60.35776855 54.88469727 -61.02905273 53.74267578 C-62.2773778 51.62162506 -63.52934949 49.50271524 -64.78540039 47.38623047 C-65.3396167 46.44408691 -65.89383301 45.50194336 -66.46484375 44.53125 C-66.955896 43.70173828 -67.44694824 42.87222656 -67.95288086 42.01757812 C-69 40 -69 40 -69 38 C-66.80712891 36.27929688 -66.80712891 36.27929688 -63.7265625 34.21875 C-62.90103882 33.66417114 -62.90103882 33.66417114 -62.05883789 33.09838867 C-60.25313829 31.89029146 -58.43993759 30.69416755 -56.625 29.5 C-56.00776062 29.09160889 -55.39052124 28.68321777 -54.75457764 28.26245117 C-41.15073248 19.27368319 -27.24778588 11.46876099 -12.5625 4.375 C-11.65516113 3.93607422 -10.74782227 3.49714844 -9.81298828 3.04492188 C-8.96849121 2.64595703 -8.12399414 2.24699219 -7.25390625 1.8359375 C-6.50439697 1.48063965 -5.7548877 1.1253418 -4.98266602 0.75927734 C-3 0 -3 0 0 0 Z " fill="#FC9A04" transform="translate(1605,569)"/>
<path d="M0 0 C2.77589409 1.33255577 3.14464088 2.88352007 4.2668457 5.71801758 C4.68329346 6.73025391 5.09974121 7.74249023 5.52880859 8.78540039 C6.18997681 10.43233887 6.18997681 10.43233887 6.86450195 12.11254883 C14.8335817 31.04913744 25.01372475 47.91522437 38.2043457 63.63989258 C39.92700195 65.92504883 39.92700195 65.92504883 39.92700195 67.92504883 C7.32543945 86.73364258 7.32543945 86.73364258 4.11938477 88.58325195 C1.97546128 89.82015611 -0.1684183 91.05713637 -2.31225586 92.29418945 C-7.75492363 95.43463 -13.1983535 98.57373517 -18.64331055 101.71020508 C-19.72797607 102.33540039 -20.8126416 102.9605957 -21.93017578 103.60473633 C-24.09045803 104.84942043 -26.25141703 106.09293078 -28.41308594 107.33520508 C-33.94616218 110.52034052 -39.4560539 113.73970145 -44.9362793 117.01489258 C-46.59216064 117.99897095 -46.59216064 117.99897095 -48.28149414 119.00292969 C-50.39241626 120.25949175 -52.49845432 121.52430484 -54.59887695 122.79833984 C-55.53779785 123.35577881 -56.47671875 123.91321777 -57.4440918 124.48754883 C-58.2683667 124.98383789 -59.0926416 125.48012695 -59.94189453 125.99145508 C-62.07299805 126.92504883 -62.07299805 126.92504883 -65.07299805 125.92504883 C-66.83229524 123.68896097 -68.43298605 121.47250677 -70.01049805 119.11254883 C-70.49139893 118.40042236 -70.9722998 117.6882959 -71.46777344 116.95458984 C-79.92949578 104.28045783 -87.55424968 91.16546009 -94.63549805 77.67504883 C-95.13621826 76.72299561 -95.63693848 75.77094238 -96.15283203 74.79003906 C-98.83807119 69.59403455 -101.14745264 64.44883566 -103.07299805 58.92504883 C-94.44607196 53.54571929 -85.73163173 48.37561113 -76.88549805 43.36254883 C-74.41482208 41.95739405 -71.94511699 40.5505361 -69.4753418 39.14379883 C-68.85524231 38.79087265 -68.23514282 38.43794647 -67.59625244 38.07432556 C-58.16226465 32.70266897 -48.76926192 27.2597533 -39.36987305 21.82788086 C-36.4967703 20.1696342 -33.62202304 18.51432041 -30.74606323 16.86103821 C-28.96301987 15.8360281 -27.18031827 14.81042598 -25.39770508 13.78466797 C-23.16495903 12.50016743 -20.93160036 11.21673091 -18.69750977 9.93457031 C-17.68446777 9.3513501 -16.67142578 8.76812988 -15.62768555 8.16723633 C-14.67345703 7.6190625 -13.71922852 7.07088867 -12.73608398 6.50610352 C-9.66959356 4.68555053 -6.71415419 2.72883756 -3.79614258 0.67944336 C-2.07299805 -0.07495117 -2.07299805 -0.07495117 0 0 Z " fill="#FC9A04" transform="translate(1531.072998046875,951.074951171875)"/>
<path d="M0 0 C23.10366101 3.90138276 48.82516709 22.75852645 67 37 C67.66 37.99 68.32 38.98 69 40 C68.65445068 40.59087402 68.30890137 41.18174805 67.95288086 41.79052734 C59.21500517 56.7373841 50.53305526 71.71523739 41.89111328 86.71777344 C38.76319852 92.14659942 35.63141635 97.57319329 32.5 103 C31.26951242 105.13280164 30.03904375 107.26561418 28.80859375 109.3984375 C22.5390625 120.265625 16.26953125 131.1328125 10 142 C5.7286411 141.1388666 3.145281 138.86710892 -0.125 136.125 C-8.24096224 129.54627484 -16.95871235 124.20448138 -26 119 C-26.97670654 118.43321533 -26.97670654 118.43321533 -27.97314453 117.85498047 C-37.91053324 112.14208209 -48.24984901 107.94049062 -59 104 C-57.5904342 99.13737088 -55.42942027 95.04484954 -52.8125 90.75 C-51.90501595 89.23381085 -50.99885194 87.71683112 -50.09375 86.19921875 C-49.59875 85.37083496 -49.10375 84.54245117 -48.59375 83.68896484 C-45.6209771 78.67332135 -42.72060528 73.61581773 -39.8125 68.5625 C-39.17546143 67.45680664 -38.53842285 66.35111328 -37.88208008 65.21191406 C-36.57299343 62.93975918 -35.26415738 60.66745991 -33.95556641 58.39501953 C-30.1924982 51.86203246 -26.42330615 45.33257705 -22.65478516 38.80273438 C-19.71883248 33.7148838 -16.78416114 28.62630761 -13.85409546 23.5350647 C-12.46671905 21.12456252 -11.07860376 18.71448624 -9.69042969 16.30444336 C-8.70826185 14.59856032 -7.72716615 12.89206014 -6.74609375 11.18554688 C-6.153125 10.15623047 -5.56015625 9.12691406 -4.94921875 8.06640625 C-4.42674561 7.15834229 -3.90427246 6.25027832 -3.3659668 5.31469727 C-2.30022034 3.50873799 -1.16319248 1.74478871 0 0 Z " fill="#FC9A04" transform="translate(1869,569)"/>
<path d="M0 0 C1.5703125 1.87890625 1.5703125 1.87890625 3.125 4.5625 C5.5007734 8.5339421 7.93113719 12.41213112 10.55224609 16.22290039 C19.06814445 28.65360441 26.0796689 41.84857347 32.6875 55.375 C33.13416016 56.27299316 33.58082031 57.17098633 34.04101562 58.09619141 C34.64526367 59.35955322 34.64526367 59.35955322 35.26171875 60.6484375 C35.62225342 61.39270996 35.98278809 62.13698242 36.35424805 62.90380859 C37.15307604 65.49690392 37.18864991 66.55018389 36 69 C33.72875977 70.68481445 33.72875977 70.68481445 30.69140625 72.36328125 C29.56524902 72.99500244 28.4390918 73.62672363 27.27880859 74.27758789 C26.0400759 74.95595919 24.80130536 75.63426139 23.5625 76.3125 C22.28646755 77.02386791 21.01124934 77.7366982 19.73681641 78.45092773 C17.11024719 79.9219967 14.48071584 81.38755157 11.84912109 82.84960938 C6.15355407 86.0220038 0.51524817 89.29307976 -5.125 92.5625 C-7.26677995 93.79973391 -9.40870736 95.03671258 -11.55078125 96.2734375 C-13.70053319 97.51560361 -15.85027266 98.75779131 -18 100 C-33.64512961 109.03797727 -49.30238963 118.05342445 -65 127 C-67.47954332 124.7835382 -68.68692161 122.8258642 -69.91015625 119.74609375 C-70.25473877 118.90079102 -70.59932129 118.05548828 -70.9543457 117.18457031 C-71.32003662 116.27803711 -71.68572754 115.37150391 -72.0625 114.4375 C-80.22962618 94.88472535 -90.93835967 76.91364617 -105 61 C-103.52014972 57.08862724 -101.557491 55.85704597 -97.93359375 53.8984375 C-96.38297241 53.0477771 -96.38297241 53.0477771 -94.80102539 52.17993164 C-93.69106201 51.5843042 -92.58109863 50.98867676 -91.4375 50.375 C-89.13204635 49.11207467 -86.82735927 47.84774898 -84.5234375 46.58203125 C-83.39776367 45.96666504 -82.27208984 45.35129883 -81.11230469 44.71728516 C-77.2190352 42.56908484 -73.38172353 40.3390283 -69.5625 38.0625 C-62.59312389 33.92545493 -55.58494616 29.85881588 -48.5625 25.8125 C-47.47050293 25.1831958 -46.37850586 24.5538916 -45.25341797 23.90551758 C-42.4215363 22.27402237 -39.58941276 20.642948 -36.75720215 19.01202393 C-31.97235217 16.25628938 -27.18859829 13.49865379 -22.40524292 10.74032593 C-20.72489647 9.77156009 -19.04421471 8.80337594 -17.36352539 7.83520508 C-16.3399292 7.24505615 -15.31633301 6.65490723 -14.26171875 6.046875 C-13.36412842 5.52963867 -12.46653809 5.01240234 -11.54174805 4.47949219 C-9.80679962 3.46961922 -8.10005477 2.41008987 -6.42114258 1.30957031 C-4 0 -4 0 0 0 Z " fill="#FC9A04" transform="translate(2008,677)"/>
<path d="M0 0 C4.71765052 0.55713206 8.21864072 2.68729365 12.1875 5.125 C13.71274102 6.04169805 15.23883949 6.9569704 16.765625 7.87109375 C17.60029297 8.37237793 18.43496094 8.87366211 19.29492188 9.39013672 C24.31161026 12.37570019 29.37714446 15.27678621 34.4375 18.1875 C36.68622759 19.48302141 38.93492511 20.77859502 41.18359375 22.07421875 C42.31265137 22.72438965 43.44170898 23.37456055 44.60498047 24.04443359 C47.91579285 25.95149581 51.22569261 27.86012956 54.53515625 29.76953125 C55.60435303 30.38634766 56.6735498 31.00316406 57.77514648 31.63867188 C59.91700916 32.87491694 62.05845141 34.11189072 64.19946289 35.34960938 C69.27075103 38.27984103 74.34636632 41.2016319 79.43914795 44.09432983 C81.84149946 45.45953665 84.24115891 46.82943671 86.640625 48.19970703 C88.33333218 49.16376858 90.02990354 50.12103533 91.7265625 51.078125 C92.75265625 51.66464844 93.77875 52.25117187 94.8359375 52.85546875 C96.19017822 53.62346802 96.19017822 53.62346802 97.57177734 54.40698242 C100.06021571 56.03950407 101.97793069 57.8257604 104 60 C103.39414063 60.76441406 102.78828125 61.52882813 102.1640625 62.31640625 C92.59430815 74.49433856 84.38974848 86.88683075 77.1875 100.625 C76.64826904 101.64948242 76.10903809 102.67396484 75.5534668 103.72949219 C71.83031718 110.97122911 68.78285549 118.35005508 66 126 C61.68900712 126 60.38777946 125.36726232 56.73828125 123.2890625 C55.710979 122.70906494 54.68367676 122.12906738 53.62524414 121.53149414 C52.53203857 120.90235107 51.43883301 120.27320801 50.3125 119.625 C49.18126709 118.98232178 48.05003418 118.33964355 46.88452148 117.67749023 C39.39341899 113.4098803 31.9464655 109.06970074 24.53125 104.671875 C18.90132167 101.33998105 13.23081763 98.07850677 7.5625 94.8125 C6.46905273 94.1824707 5.37560547 93.55244141 4.24902344 92.90332031 C1.99228354 91.60334889 -0.26455391 90.3035468 -2.52148438 89.00390625 C-6.08319577 86.95253764 -9.64332403 84.89843161 -13.203125 82.84375 C-13.79154678 82.50413742 -14.37996857 82.16452484 -14.98622131 81.81462097 C-17.81109084 80.18419138 -20.63590443 78.55366492 -23.46069336 76.9230957 C-28.63428027 73.93778238 -33.81072232 70.95796167 -39 68 C-30.16058516 43.80791728 -16.30230725 19.91904429 0 0 Z " fill="#FC9A04" transform="translate(1467,677)"/>
<path d="M0 0 C0 39.6 0 79.2 0 120 C-6.6 119.34 -13.2 118.68 -20 118 C-25.56740967 117.84534973 -31.08351626 117.70929267 -36.64550781 117.73925781 C-39.00091248 117.75000416 -41.35555505 117.73925209 -43.7109375 117.7265625 C-55.37202907 117.74583703 -66.27270792 118.82727079 -78 120 C-78 80.4 -78 40.8 -78 0 C-50.68406804 -1.951138 -27.31593196 -1.951138 0 0 Z " fill="#FD9A04" transform="translate(1776,543)"/>
<path d="M0 0 C39.6 0 79.2 0 120 0 C122.32643312 27.91719745 122.32643312 27.91719745 122.25 39 C122.26160156 40.68222656 122.26160156 40.68222656 122.2734375 42.3984375 C122.24694851 54.39795125 121.00627924 65.92464912 120 78 C80.4 78 40.8 78 0 78 C0.66 72.06 1.32 66.12 2 60 C3.6098841 39.74661935 2.01672207 20.16722075 0 0 Z " fill="#FD9A04" transform="translate(1951,838)"/>
<path d="M0 0 C39.6 0 79.2 0 120 0 C119.01 9.9 118.02 19.8 117 30 C116.46815238 46.16816773 117.99623463 61.969877 120 78 C80.4 78 40.8 78 0 78 C-1.22758771 65.72412286 -2.32897137 54.08249533 -2.26074219 41.83666992 C-2.25001025 39.56466936 -2.26074353 37.29346172 -2.2734375 35.02148438 C-2.253159 23.13321187 -1.13937368 11.96342368 0 0 Z " fill="#FD9A04" transform="translate(1403,838)"/>
<path d="M0 0 C13.365 1.485 13.365 1.485 27 3 C44.6552981 3.55172807 60.15435777 1.98284914 78 0 C78 39.6 78 79.2 78 120 C57.25115298 122.30542745 57.25115298 122.30542745 49.6875 122.265625 C48.82342529 122.26753845 47.95935059 122.2694519 47.0690918 122.27142334 C45.27489931 122.27276084 43.4806963 122.26923918 41.68652344 122.26074219 C39.00172361 122.25000689 36.31759252 122.26072269 33.6328125 122.2734375 C31.85937358 122.27211547 30.08593506 122.26955219 28.3125 122.265625 C27.54317139 122.26967346 26.77384277 122.27372192 25.98120117 122.27789307 C17.16471334 122.20676304 8.91474968 120.99052774 0 120 C0 80.4 0 40.8 0 0 Z " fill="#FD9A04" transform="translate(1698,1091)"/>
<path d="M0 0 C0.66 0.33 1.32 0.66 2 1 C-8.23 11.23 -18.46 21.46 -29 32 C-29 28.47073554 -28.55717129 28.15977067 -26.21875 25.70703125 C-25.62779541 25.08046631 -25.03684082 24.45390137 -24.42797852 23.80834961 C-23.79174561 23.14971924 -23.1555127 22.49108887 -22.5 21.8125 C-21.85796631 21.13775635 -21.21593262 20.4630127 -20.55444336 19.76782227 C-18.71143202 17.83683791 -16.85803944 15.91651474 -15 14 C-14.18660156 13.15695312 -13.37320313 12.31390625 -12.53515625 11.4453125 C-8.54587918 7.3849394 -4.37260769 3.64383974 0 0 Z " fill="#DBA80D" transform="translate(4256,676)"/>
<path d="M0 0 C0.66 0.33 1.32 0.66 2 1 C-6.58 9.58 -15.16 18.16 -24 27 C-24.66 26.67 -25.32 26.34 -26 26 C-17.69143022 16.89252928 -9.25328565 8.15170402 0 0 Z " fill="#DBA90D" transform="translate(635,670)"/>
<path d="M0 0 C0 3 0 3 -2.203125 5.54370117 C-3.21108431 6.55118515 -4.22730922 7.55044193 -5.25 8.54296875 C-5.78270508 9.07142899 -6.31541016 9.59988922 -6.86425781 10.1443634 C-8.56927029 11.83256735 -10.28441127 13.51005145 -12 15.1875 C-13.15693178 16.32938778 -14.31319065 17.47195776 -15.46875 18.61523438 C-18.30474911 21.41813541 -21.14987676 24.2114652 -24 27 C-24 23.39768908 -23.43128853 23.0209684 -21.03515625 20.48828125 C-20.40359619 19.81603516 -19.77203613 19.14378906 -19.12133789 18.45117188 C-18.44192139 17.74541016 -17.76250488 17.03964844 -17.0625 16.3125 C-16.3811499 15.59513672 -15.6997998 14.87777344 -14.99780273 14.13867188 C-10.21994145 9.15189593 -5.33436292 4.3947055 0 0 Z " fill="#DCAC0E" transform="translate(2585,684)"/>
<path d="M0 0 C0.66 0.33 1.32 0.66 2 1 C-3.28 6.28 -8.56 11.56 -14 17 C-14.66 16.67 -15.32 16.34 -16 16 C-11.03093773 10.1719243 -5.90436923 4.8836671 0 0 Z " fill="#DCB00E" transform="translate(3211,669)"/>
</svg>
